<?xml version="1.0" encoding="utf-8" standalone="no"?>
<!DOCTYPE svg PUBLIC "-//W3C//DTD SVG 1.1//EN"
  "http://www.w3.org/Graphics/SVG/1.1/DTD/svg11.dtd">
<svg xmlns:xlink="http://www.w3.org/1999/xlink" width="460.8pt" height="345.6pt" viewBox="0 0 460.8 345.6" xmlns="http://www.w3.org/2000/svg" version="1.1">
 <metadata>
  <rdf:RDF xmlns:dc="http://purl.org/dc/elements/1.1/" xmlns:cc="http://creativecommons.org/ns#" xmlns:rdf="http://www.w3.org/1999/02/22-rdf-syntax-ns#">
   <cc:Work>
    <dc:type rdf:resource="http://purl.org/dc/dcmitype/StillImage"/>
    <dc:date>2022-09-20T10:56:37.456068</dc:date>
    <dc:format>image/svg+xml</dc:format>
    <dc:creator>
     <cc:Agent>
      <dc:title>Matplotlib v3.5.3, https://matplotlib.org/</dc:title>
     </cc:Agent>
    </dc:creator>
   </cc:Work>
  </rdf:RDF>
 </metadata>
 <defs>
  <style type="text/css">*{stroke-linejoin: round; stroke-linecap: butt}</style>
 </defs>
 <g id="figure_1">
  <g id="patch_1">
   <path d="M 0 345.6 
L 460.8 345.6 
L 460.8 0 
L 0 0 
z
" style="fill: #ffffff"/>
  </g>
  <g id="axes_1">
   <g id="patch_2">
    <path d="M 57.6 307.584 
L 414.72 307.584 
L 414.72 41.472 
L 57.6 41.472 
z
" style="fill: #ffffff"/>
   </g>
   <g id="matplotlib.axis_1">
    <g id="xtick_1">
     <g id="line2d_1">
      <defs>
       <path id="m3b817213d2" d="M 0 0 
L 0 3.5 
" style="stroke: #000000; stroke-width: 0.8"/>
      </defs>
      <g>
       <use xlink:href="#m3b817213d2" x="73.832727" y="307.584" style="stroke: #000000; stroke-width: 0.8"/>
      </g>
     </g>
     <g id="text_1">
      <!-- 0 -->
      <g transform="translate(70.651477 322.182437)scale(0.1 -0.1)">
       <defs>
        <path id="DejaVuSans-30" d="M 2034 4250 
Q 1547 4250 1301 3770 
Q 1056 3291 1056 2328 
Q 1056 1369 1301 889 
Q 1547 409 2034 409 
Q 2525 409 2770 889 
Q 3016 1369 3016 2328 
Q 3016 3291 2770 3770 
Q 2525 4250 2034 4250 
z
M 2034 4750 
Q 2819 4750 3233 4129 
Q 3647 3509 3647 2328 
Q 3647 1150 3233 529 
Q 2819 -91 2034 -91 
Q 1250 -91 836 529 
Q 422 1150 422 2328 
Q 422 3509 836 4129 
Q 1250 4750 2034 4750 
z
" transform="scale(0.015625)"/>
       </defs>
       <use xlink:href="#DejaVuSans-30"/>
      </g>
     </g>
    </g>
    <g id="xtick_2">
     <g id="line2d_2">
      <g>
       <use xlink:href="#m3b817213d2" x="137.490481" y="307.584" style="stroke: #000000; stroke-width: 0.8"/>
      </g>
     </g>
     <g id="text_2">
      <!-- 50 -->
      <g transform="translate(131.127981 322.182437)scale(0.1 -0.1)">
       <defs>
        <path id="DejaVuSans-35" d="M 691 4666 
L 3169 4666 
L 3169 4134 
L 1269 4134 
L 1269 2991 
Q 1406 3038 1543 3061 
Q 1681 3084 1819 3084 
Q 2600 3084 3056 2656 
Q 3513 2228 3513 1497 
Q 3513 744 3044 326 
Q 2575 -91 1722 -91 
Q 1428 -91 1123 -41 
Q 819 9 494 109 
L 494 744 
Q 775 591 1075 516 
Q 1375 441 1709 441 
Q 2250 441 2565 725 
Q 2881 1009 2881 1497 
Q 2881 1984 2565 2268 
Q 2250 2553 1709 2553 
Q 1456 2553 1204 2497 
Q 953 2441 691 2322 
L 691 4666 
z
" transform="scale(0.015625)"/>
       </defs>
       <use xlink:href="#DejaVuSans-35"/>
       <use xlink:href="#DejaVuSans-30" x="63.623047"/>
      </g>
     </g>
    </g>
    <g id="xtick_3">
     <g id="line2d_3">
      <g>
       <use xlink:href="#m3b817213d2" x="201.148235" y="307.584" style="stroke: #000000; stroke-width: 0.8"/>
      </g>
     </g>
     <g id="text_3">
      <!-- 100 -->
      <g transform="translate(191.604485 322.182437)scale(0.1 -0.1)">
       <defs>
        <path id="DejaVuSans-31" d="M 794 531 
L 1825 531 
L 1825 4091 
L 703 3866 
L 703 4441 
L 1819 4666 
L 2450 4666 
L 2450 531 
L 3481 531 
L 3481 0 
L 794 0 
L 794 531 
z
" transform="scale(0.015625)"/>
       </defs>
       <use xlink:href="#DejaVuSans-31"/>
       <use xlink:href="#DejaVuSans-30" x="63.623047"/>
       <use xlink:href="#DejaVuSans-30" x="127.246094"/>
      </g>
     </g>
    </g>
    <g id="xtick_4">
     <g id="line2d_4">
      <g>
       <use xlink:href="#m3b817213d2" x="264.805989" y="307.584" style="stroke: #000000; stroke-width: 0.8"/>
      </g>
     </g>
     <g id="text_4">
      <!-- 150 -->
      <g transform="translate(255.262239 322.182437)scale(0.1 -0.1)">
       <use xlink:href="#DejaVuSans-31"/>
       <use xlink:href="#DejaVuSans-35" x="63.623047"/>
       <use xlink:href="#DejaVuSans-30" x="127.246094"/>
      </g>
     </g>
    </g>
    <g id="xtick_5">
     <g id="line2d_5">
      <g>
       <use xlink:href="#m3b817213d2" x="328.463743" y="307.584" style="stroke: #000000; stroke-width: 0.8"/>
      </g>
     </g>
     <g id="text_5">
      <!-- 200 -->
      <g transform="translate(318.919993 322.182437)scale(0.1 -0.1)">
       <defs>
        <path id="DejaVuSans-32" d="M 1228 531 
L 3431 531 
L 3431 0 
L 469 0 
L 469 531 
Q 828 903 1448 1529 
Q 2069 2156 2228 2338 
Q 2531 2678 2651 2914 
Q 2772 3150 2772 3378 
Q 2772 3750 2511 3984 
Q 2250 4219 1831 4219 
Q 1534 4219 1204 4116 
Q 875 4013 500 3803 
L 500 4441 
Q 881 4594 1212 4672 
Q 1544 4750 1819 4750 
Q 2544 4750 2975 4387 
Q 3406 4025 3406 3419 
Q 3406 3131 3298 2873 
Q 3191 2616 2906 2266 
Q 2828 2175 2409 1742 
Q 1991 1309 1228 531 
z
" transform="scale(0.015625)"/>
       </defs>
       <use xlink:href="#DejaVuSans-32"/>
       <use xlink:href="#DejaVuSans-30" x="63.623047"/>
       <use xlink:href="#DejaVuSans-30" x="127.246094"/>
      </g>
     </g>
    </g>
    <g id="xtick_6">
     <g id="line2d_6">
      <g>
       <use xlink:href="#m3b817213d2" x="392.121497" y="307.584" style="stroke: #000000; stroke-width: 0.8"/>
      </g>
     </g>
     <g id="text_6">
      <!-- 250 -->
      <g transform="translate(382.577747 322.182437)scale(0.1 -0.1)">
       <use xlink:href="#DejaVuSans-32"/>
       <use xlink:href="#DejaVuSans-35" x="63.623047"/>
       <use xlink:href="#DejaVuSans-30" x="127.246094"/>
      </g>
     </g>
    </g>
   </g>
   <g id="matplotlib.axis_2">
    <g id="ytick_1">
     <g id="line2d_7">
      <defs>
       <path id="m191eff4e18" d="M 0 0 
L -3.5 0 
" style="stroke: #000000; stroke-width: 0.8"/>
      </defs>
      <g>
       <use xlink:href="#m191eff4e18" x="57.6" y="295.488" style="stroke: #000000; stroke-width: 0.8"/>
      </g>
     </g>
     <g id="text_7">
      <!-- 0 -->
      <g transform="translate(44.2375 299.287219)scale(0.1 -0.1)">
       <use xlink:href="#DejaVuSans-30"/>
      </g>
     </g>
    </g>
    <g id="ytick_2">
     <g id="line2d_8">
      <g>
       <use xlink:href="#m191eff4e18" x="57.6" y="254.746279" style="stroke: #000000; stroke-width: 0.8"/>
      </g>
     </g>
     <g id="text_8">
      <!-- 2000 -->
      <g transform="translate(25.15 258.545498)scale(0.1 -0.1)">
       <use xlink:href="#DejaVuSans-32"/>
       <use xlink:href="#DejaVuSans-30" x="63.623047"/>
       <use xlink:href="#DejaVuSans-30" x="127.246094"/>
       <use xlink:href="#DejaVuSans-30" x="190.869141"/>
      </g>
     </g>
    </g>
    <g id="ytick_3">
     <g id="line2d_9">
      <g>
       <use xlink:href="#m191eff4e18" x="57.6" y="214.004559" style="stroke: #000000; stroke-width: 0.8"/>
      </g>
     </g>
     <g id="text_9">
      <!-- 4000 -->
      <g transform="translate(25.15 217.803778)scale(0.1 -0.1)">
       <defs>
        <path id="DejaVuSans-34" d="M 2419 4116 
L 825 1625 
L 2419 1625 
L 2419 4116 
z
M 2253 4666 
L 3047 4666 
L 3047 1625 
L 3713 1625 
L 3713 1100 
L 3047 1100 
L 3047 0 
L 2419 0 
L 2419 1100 
L 313 1100 
L 313 1709 
L 2253 4666 
z
" transform="scale(0.015625)"/>
       </defs>
       <use xlink:href="#DejaVuSans-34"/>
       <use xlink:href="#DejaVuSans-30" x="63.623047"/>
       <use xlink:href="#DejaVuSans-30" x="127.246094"/>
       <use xlink:href="#DejaVuSans-30" x="190.869141"/>
      </g>
     </g>
    </g>
    <g id="ytick_4">
     <g id="line2d_10">
      <g>
       <use xlink:href="#m191eff4e18" x="57.6" y="173.262838" style="stroke: #000000; stroke-width: 0.8"/>
      </g>
     </g>
     <g id="text_10">
      <!-- 6000 -->
      <g transform="translate(25.15 177.062057)scale(0.1 -0.1)">
       <defs>
        <path id="DejaVuSans-36" d="M 2113 2584 
Q 1688 2584 1439 2293 
Q 1191 2003 1191 1497 
Q 1191 994 1439 701 
Q 1688 409 2113 409 
Q 2538 409 2786 701 
Q 3034 994 3034 1497 
Q 3034 2003 2786 2293 
Q 2538 2584 2113 2584 
z
M 3366 4563 
L 3366 3988 
Q 3128 4100 2886 4159 
Q 2644 4219 2406 4219 
Q 1781 4219 1451 3797 
Q 1122 3375 1075 2522 
Q 1259 2794 1537 2939 
Q 1816 3084 2150 3084 
Q 2853 3084 3261 2657 
Q 3669 2231 3669 1497 
Q 3669 778 3244 343 
Q 2819 -91 2113 -91 
Q 1303 -91 875 529 
Q 447 1150 447 2328 
Q 447 3434 972 4092 
Q 1497 4750 2381 4750 
Q 2619 4750 2861 4703 
Q 3103 4656 3366 4563 
z
" transform="scale(0.015625)"/>
       </defs>
       <use xlink:href="#DejaVuSans-36"/>
       <use xlink:href="#DejaVuSans-30" x="63.623047"/>
       <use xlink:href="#DejaVuSans-30" x="127.246094"/>
       <use xlink:href="#DejaVuSans-30" x="190.869141"/>
      </g>
     </g>
    </g>
    <g id="ytick_5">
     <g id="line2d_11">
      <g>
       <use xlink:href="#m191eff4e18" x="57.6" y="132.521118" style="stroke: #000000; stroke-width: 0.8"/>
      </g>
     </g>
     <g id="text_11">
      <!-- 8000 -->
      <g transform="translate(25.15 136.320337)scale(0.1 -0.1)">
       <defs>
        <path id="DejaVuSans-38" d="M 2034 2216 
Q 1584 2216 1326 1975 
Q 1069 1734 1069 1313 
Q 1069 891 1326 650 
Q 1584 409 2034 409 
Q 2484 409 2743 651 
Q 3003 894 3003 1313 
Q 3003 1734 2745 1975 
Q 2488 2216 2034 2216 
z
M 1403 2484 
Q 997 2584 770 2862 
Q 544 3141 544 3541 
Q 544 4100 942 4425 
Q 1341 4750 2034 4750 
Q 2731 4750 3128 4425 
Q 3525 4100 3525 3541 
Q 3525 3141 3298 2862 
Q 3072 2584 2669 2484 
Q 3125 2378 3379 2068 
Q 3634 1759 3634 1313 
Q 3634 634 3220 271 
Q 2806 -91 2034 -91 
Q 1263 -91 848 271 
Q 434 634 434 1313 
Q 434 1759 690 2068 
Q 947 2378 1403 2484 
z
M 1172 3481 
Q 1172 3119 1398 2916 
Q 1625 2713 2034 2713 
Q 2441 2713 2670 2916 
Q 2900 3119 2900 3481 
Q 2900 3844 2670 4047 
Q 2441 4250 2034 4250 
Q 1625 4250 1398 4047 
Q 1172 3844 1172 3481 
z
" transform="scale(0.015625)"/>
       </defs>
       <use xlink:href="#DejaVuSans-38"/>
       <use xlink:href="#DejaVuSans-30" x="63.623047"/>
       <use xlink:href="#DejaVuSans-30" x="127.246094"/>
       <use xlink:href="#DejaVuSans-30" x="190.869141"/>
      </g>
     </g>
    </g>
    <g id="ytick_6">
     <g id="line2d_12">
      <g>
       <use xlink:href="#m191eff4e18" x="57.6" y="91.779397" style="stroke: #000000; stroke-width: 0.8"/>
      </g>
     </g>
     <g id="text_12">
      <!-- 10000 -->
      <g transform="translate(18.7875 95.578616)scale(0.1 -0.1)">
       <use xlink:href="#DejaVuSans-31"/>
       <use xlink:href="#DejaVuSans-30" x="63.623047"/>
       <use xlink:href="#DejaVuSans-30" x="127.246094"/>
       <use xlink:href="#DejaVuSans-30" x="190.869141"/>
       <use xlink:href="#DejaVuSans-30" x="254.492188"/>
      </g>
     </g>
    </g>
    <g id="ytick_7">
     <g id="line2d_13">
      <g>
       <use xlink:href="#m191eff4e18" x="57.6" y="51.037677" style="stroke: #000000; stroke-width: 0.8"/>
      </g>
     </g>
     <g id="text_13">
      <!-- 12000 -->
      <g transform="translate(18.7875 54.836896)scale(0.1 -0.1)">
       <use xlink:href="#DejaVuSans-31"/>
       <use xlink:href="#DejaVuSans-32" x="63.623047"/>
       <use xlink:href="#DejaVuSans-30" x="127.246094"/>
       <use xlink:href="#DejaVuSans-30" x="190.869141"/>
       <use xlink:href="#DejaVuSans-30" x="254.492188"/>
      </g>
     </g>
    </g>
   </g>
   <g id="line2d_14">
    <path d="M 73.832727 217.627043 
L 75.105882 261.515355 
L 76.379037 240.775096 
L 78.925348 218.493712 
L 80.198503 203.503179 
L 81.471658 196.183182 
L 82.744813 171.721813 
L 84.017968 166.755055 
L 85.291123 154.798368 
L 86.564278 152.799906 
L 87.837433 148.873574 
L 89.110588 153.581562 
L 90.383743 143.199987 
L 91.656898 137.890554 
L 92.930053 116.311359 
L 94.203209 99.499147 
L 95.476364 114.691674 
L 96.749519 54.816472 
L 98.022674 86.278358 
L 99.295829 76.311057 
L 100.568984 53.568 
L 101.842139 66.902039 
L 103.115294 78.920242 
L 104.388449 102.068195 
L 105.661604 115.880545 
L 106.934759 118.23812 
L 108.207914 125.375081 
L 109.48107 129.206517 
L 110.754225 135.573318 
L 112.02738 156.686706 
L 113.300535 179.699425 
L 114.57369 209.396408 
L 115.846845 219.416653 
L 117.12 222.29923 
L 118.393155 238.262119 
L 119.66631 243.563787 
L 120.939465 258.658997 
L 122.21262 264.887035 
L 123.485775 266.675032 
L 124.75893 264.880077 
L 126.032086 270.861042 
L 127.305241 260.771819 
L 128.578396 273.874618 
L 129.851551 273.894384 
L 131.124706 271.256963 
L 132.397861 275.695894 
L 133.671016 275.923301 
L 134.944171 274.620676 
L 136.217326 271.772688 
L 137.490481 275.278896 
L 138.763636 277.060641 
L 140.036791 280.349123 
L 141.309947 280.469331 
L 142.583102 278.404916 
L 143.856257 282.82983 
L 145.129412 281.712962 
L 146.402567 283.745208 
L 147.675722 283.683288 
L 148.948877 281.940975 
L 150.222032 282.122396 
L 151.495187 284.695276 
L 152.768342 285.362977 
L 154.041497 284.587472 
L 155.314652 285.920654 
L 156.587807 285.800849 
L 157.860963 286.29691 
L 159.134118 286.317079 
L 160.407273 284.389209 
L 161.680428 286.092798 
L 162.953583 285.0677 
L 164.226738 286.449691 
L 165.499893 285.755469 
L 166.773048 286.120531 
L 168.046203 287.32937 
L 169.319358 287.287821 
L 170.592513 287.521582 
L 171.865668 286.853781 
L 173.138824 287.597014 
L 174.411979 286.88232 
L 175.685134 287.994145 
L 176.958289 287.658329 
L 178.231444 288.114455 
L 179.504599 288.248983 
L 180.777754 288.213283 
L 182.050909 287.434955 
L 183.324064 288.325626 
L 184.597219 288.388856 
L 185.870374 288.199367 
L 187.143529 287.754637 
L 188.416684 288.278329 
L 189.68984 288.282363 
L 190.962995 287.408937 
L 192.23615 286.292473 
L 193.509305 287.587535 
L 194.78246 288.034484 
L 196.055615 287.617688 
L 197.32877 288.054149 
L 198.601925 287.110332 
L 199.87508 286.767759 
L 201.148235 287.089962 
L 202.42139 287.852356 
L 203.694545 287.363456 
L 204.967701 287.046497 
L 206.240856 285.938 
L 207.514011 287.284493 
L 208.787166 283.533028 
L 210.060321 285.774932 
L 211.333476 286.908137 
L 212.606631 287.08028 
L 213.879786 287.432132 
L 215.152941 287.456536 
L 216.426096 285.906737 
L 217.699251 283.146284 
L 218.972406 286.13243 
L 220.245561 286.377385 
L 221.518717 284.689831 
L 222.791872 286.391201 
L 224.065027 286.242352 
L 226.611337 285.115703 
L 227.884492 284.765263 
L 229.157647 283.062784 
L 230.430802 281.987868 
L 231.703957 282.343955 
L 232.977112 281.789202 
L 234.250267 280.713176 
L 235.523422 277.296519 
L 236.796578 277.194766 
L 238.069733 274.094865 
L 239.342888 270.517964 
L 240.616043 269.229659 
L 243.162353 273.055447 
L 244.435508 272.770961 
L 245.708663 273.276703 
L 246.981818 268.238747 
L 248.254973 271.463192 
L 249.528128 270.393117 
L 250.801283 269.174294 
L 252.074439 269.645446 
L 253.347594 268.778071 
L 254.620749 267.050884 
L 255.893904 264.459348 
L 257.167059 264.787803 
L 258.440214 258.560168 
L 259.713369 258.363418 
L 260.986524 260.824763 
L 262.259679 260.416236 
L 263.532834 262.255059 
L 264.805989 258.276388 
L 266.079144 260.394857 
L 267.352299 259.174824 
L 268.625455 261.599763 
L 269.89861 262.713504 
L 271.171765 260.432371 
L 272.44492 267.615823 
L 273.718075 269.720173 
L 274.99123 272.573203 
L 276.264385 276.140523 
L 277.53754 279.086432 
L 278.810695 278.000927 
L 280.08385 280.031459 
L 281.357005 282.28617 
L 282.63016 283.439241 
L 283.903316 285.281291 
L 285.176471 285.758191 
L 286.449626 286.376175 
L 288.995936 287.139074 
L 290.269091 282.284859 
L 291.542246 286.929617 
L 294.088556 287.716214 
L 295.361711 287.992734 
L 296.634866 287.927688 
L 297.908021 287.342076 
L 299.181176 287.011806 
L 300.454332 287.378683 
L 301.727487 288.606683 
L 303.000642 289.148729 
L 304.273797 289.079448 
L 306.820107 289.628251 
L 308.093262 282.009953 
L 309.366417 289.712357 
L 310.639572 289.545457 
L 311.912727 288.810089 
L 313.185882 288.579152 
L 314.459037 289.803925 
L 315.732193 289.942084 
L 317.005348 289.650942 
L 318.278503 289.662942 
L 320.824813 290.157995 
L 322.097968 289.507741 
L 323.371123 289.522565 
L 324.644278 289.322991 
L 325.917433 288.98788 
L 327.190588 289.534969 
L 328.463743 288.906195 
L 329.736898 289.756427 
L 331.010053 289.898216 
L 333.556364 289.440476 
L 338.648984 289.602435 
L 339.922139 289.825304 
L 341.195294 289.617058 
L 342.468449 289.795252 
L 343.741604 289.158512 
L 345.014759 289.913343 
L 348.834225 289.005932 
L 351.380535 288.91507 
L 353.926845 288.019559 
L 355.2 285.61015 
L 356.473155 287.335622 
L 357.74631 287.468134 
L 359.019465 286.536822 
L 360.29262 285.358943 
L 361.565775 285.926806 
L 364.112086 284.649593 
L 365.385241 284.727345 
L 366.658396 282.094159 
L 367.931551 281.578535 
L 369.204706 282.821359 
L 370.477861 278.522805 
L 371.751016 279.667607 
L 373.024171 273.90104 
L 374.297326 270.840167 
L 375.570481 270.914893 
L 376.843636 274.477878 
L 378.116791 275.526271 
L 379.389947 255.091777 
L 380.663102 277.096239 
L 381.936257 267.669271 
L 383.209412 252.667141 
L 384.482567 262.167122 
L 385.755722 263.0945 
L 387.028877 262.270085 
L 388.302032 266.018929 
L 389.575187 273.0737 
L 390.848342 276.101395 
L 392.121497 271.829263 
L 393.394652 281.297578 
L 394.667807 280.073108 
L 395.940963 285.466545 
L 397.214118 289.455603 
L 398.487273 273.933109 
L 398.487273 273.933109 
" clip-path="url(#pcffa471f67)" style="fill: none; stroke: #1f77b4; stroke-width: 1.5; stroke-linecap: square"/>
   </g>
   <g id="line2d_15">
    <path d="M 73.832727 253.371246 
L 75.105882 281.574702 
L 76.379037 274.485643 
L 77.652193 262.039047 
L 78.925348 254.023114 
L 80.198503 237.369936 
L 81.471658 226.777088 
L 82.744813 207.302546 
L 84.017968 200.417195 
L 85.291123 200.87554 
L 86.564278 189.803977 
L 87.837433 170.22758 
L 89.110588 183.937169 
L 90.383743 186.880759 
L 91.656898 186.137222 
L 92.930053 178.661116 
L 94.203209 174.342494 
L 95.476364 162.16072 
L 96.749519 151.058601 
L 98.022674 146.271449 
L 99.295829 134.94525 
L 100.568984 106.925132 
L 101.842139 108.697397 
L 103.115294 114.340125 
L 104.388449 134.802654 
L 105.661604 153.452177 
L 106.934759 153.034574 
L 108.207914 182.17509 
L 109.48107 185.220533 
L 110.754225 206.813645 
L 112.02738 230.576254 
L 113.300535 236.106942 
L 114.57369 248.553538 
L 115.846845 255.112955 
L 117.12 250.998041 
L 119.66631 267.875299 
L 120.939465 271.79669 
L 122.21262 273.630067 
L 123.485775 276.18661 
L 124.75893 277.398676 
L 126.032086 277.938504 
L 127.305241 275.056027 
L 128.578396 279.700583 
L 129.851551 280.270967 
L 131.124706 280.607087 
L 132.397861 281.126544 
L 133.671016 280.515418 
L 134.944171 281.951563 
L 136.217326 281.370994 
L 137.490481 282.328424 
L 138.763636 282.399722 
L 140.036791 284.630331 
L 141.309947 285.200716 
L 142.583102 285.363682 
L 143.856257 285.750729 
L 145.129412 285.822027 
L 146.402567 285.709987 
L 147.675722 286.097033 
L 148.948877 285.333126 
L 150.222032 286.097033 
L 151.495187 287.135947 
L 152.768342 287.960967 
L 154.041497 288.144305 
L 155.314652 289.050808 
L 156.587807 288.724874 
L 157.860963 288.969325 
L 159.134118 288.541537 
L 160.407273 287.726702 
L 162.953583 287.696146 
L 164.226738 287.584106 
L 165.499893 288.042451 
L 166.773048 288.918398 
L 168.046203 289.295258 
L 169.319358 289.152662 
L 170.592513 289.356371 
L 171.865668 288.134119 
L 173.138824 289.111921 
L 174.411979 288.653576 
L 175.685134 289.712861 
L 176.958289 290.079537 
L 179.504599 290.293431 
L 180.777754 289.509153 
L 182.050909 289.478596 
L 183.324064 289.875828 
L 184.597219 290.415656 
L 185.870374 290.619364 
L 187.143529 289.875828 
L 189.68984 290.507325 
L 190.962995 289.468411 
L 192.23615 288.582278 
L 193.509305 289.22396 
L 194.78246 290.110093 
L 196.055615 290.283245 
L 197.32877 290.639735 
L 198.601925 289.539709 
L 199.87508 289.132292 
L 202.42139 290.721219 
L 203.694545 290.04898 
L 204.967701 289.142477 
L 206.240856 289.142477 
L 207.514011 289.69249 
L 208.787166 288.572093 
L 210.060321 289.111921 
L 211.333476 289.835086 
L 212.606631 290.028609 
L 213.879786 290.059166 
L 215.152941 290.283245 
L 216.426096 289.539709 
L 217.699251 288.215603 
L 218.972406 289.549894 
L 220.245561 289.600821 
L 221.518717 288.307272 
L 222.791872 289.69249 
L 224.065027 290.211947 
L 225.338182 290.150835 
L 226.611337 290.425841 
L 229.157647 289.356371 
L 230.430802 289.611007 
L 231.703957 289.611007 
L 232.977112 290.150835 
L 234.250267 289.845272 
L 235.523422 287.074835 
L 236.796578 289.020252 
L 238.069733 289.346186 
L 240.616043 288.256345 
L 241.889198 289.09155 
L 244.435508 287.278543 
L 245.708663 287.645219 
L 246.981818 283.795126 
L 248.254973 285.984994 
L 249.528128 286.535007 
L 250.801283 286.280371 
L 252.074439 286.229444 
L 253.347594 286.046106 
L 254.620749 286.97298 
L 255.893904 286.412782 
L 257.167059 286.433153 
L 258.440214 285.129418 
L 260.986524 286.341484 
L 262.259679 286.433153 
L 263.532834 286.881312 
L 264.805989 286.962795 
L 266.079144 287.298914 
L 267.352299 286.871126 
L 268.625455 287.08502 
L 269.89861 287.115576 
L 271.171765 285.282199 
L 272.44492 286.076663 
L 273.718075 287.258172 
L 274.99123 287.747073 
L 276.264385 287.624848 
L 277.53754 288.388755 
L 278.810695 287.533179 
L 280.08385 289.09155 
L 281.357005 290.150835 
L 282.63016 290.008239 
L 283.903316 290.171205 
L 286.449626 291.149007 
L 287.722781 291.220305 
L 288.995936 291.036967 
L 290.269091 290.171205 
L 291.542246 290.914742 
L 294.088556 291.892543 
L 295.361711 291.94347 
L 296.634866 291.607351 
L 297.908021 291.831431 
L 300.454332 291.831431 
L 301.727487 292.462927 
L 303.000642 292.554596 
L 304.273797 292.911086 
L 306.820107 292.788861 
L 308.093262 293.063868 
L 309.366417 292.941642 
L 310.639572 293.074053 
L 311.912727 292.982384 
L 313.185882 293.298133 
L 314.459037 293.145351 
L 317.005348 293.542583 
L 323.371123 293.512027 
L 324.644278 293.634252 
L 325.917433 293.033311 
L 327.190588 293.603695 
L 328.463743 293.899073 
L 331.010053 293.990742 
L 336.102674 293.756477 
L 338.648984 293.909258 
L 343.741604 293.827775 
L 345.014759 293.858331 
L 346.287914 294.021298 
L 347.56107 293.817589 
L 350.10738 293.919444 
L 351.380535 293.83796 
L 353.926845 293.899073 
L 355.2 293.644437 
L 359.019465 293.919444 
L 362.83893 293.776848 
L 366.658396 293.868517 
L 369.204706 293.746291 
L 370.477861 293.430543 
L 371.751016 293.695364 
L 373.024171 293.573139 
L 375.570481 293.787033 
L 379.389947 293.827775 
L 383.209412 293.888887 
L 384.482567 293.695364 
L 385.755722 293.899073 
L 388.302032 293.685179 
L 389.575187 293.817589 
L 390.848342 293.450914 
L 392.121497 293.328689 
L 393.394652 293.899073 
L 394.667807 293.736106 
L 395.940963 293.797219 
L 397.214118 294.112967 
L 398.487273 288.093378 
L 398.487273 288.093378 
" clip-path="url(#pcffa471f67)" style="fill: none; stroke: #ff7f0e; stroke-width: 1.5; stroke-linecap: square"/>
   </g>
   <g id="line2d_16">
    <path d="M 73.832727 295.488 
L 77.652193 295.488 
L 78.925348 292.839788 
L 80.198503 293.369431 
L 81.471658 295.488 
L 82.744813 295.488 
L 84.017968 291.271232 
L 85.291123 295.488 
L 86.564278 292.962013 
L 87.837433 295.488 
L 90.383743 295.488 
L 91.656898 207.87293 
L 92.930053 275.687524 
L 94.203209 256.212981 
L 95.476364 259.533432 
L 96.749519 295.488 
L 98.022674 295.488 
L 99.295829 230.647552 
L 100.568984 295.488 
L 101.842139 294.693536 
L 103.115294 294.815762 
L 104.388449 295.488 
L 109.48107 295.488 
L 110.754225 294.795391 
L 112.02738 295.488 
L 113.300535 267.579921 
L 114.57369 295.488 
L 115.846845 295.488 
L 117.12 294.795391 
L 118.393155 294.673166 
L 119.66631 268.96514 
L 120.939465 195.711526 
L 122.21262 285.974808 
L 123.485775 281.228398 
L 124.75893 294.917616 
L 127.305241 293.83796 
L 128.578396 289.763788 
L 129.851551 291.576795 
L 131.124706 295.488 
L 132.397861 292.63608 
L 133.671016 295.488 
L 134.944171 294.937987 
L 136.217326 295.426887 
L 137.490481 276.665325 
L 138.763636 289.641563 
L 140.036791 295.488 
L 141.309947 278.885749 
L 142.583102 290.74159 
L 143.856257 295.202808 
L 145.129412 295.488 
L 146.402567 284.691444 
L 147.675722 295.488 
L 148.948877 290.680477 
L 150.222032 295.488 
L 151.495187 286.708159 
L 152.768342 295.488 
L 155.314652 295.488 
L 156.587807 291.169378 
L 157.860963 295.467629 
L 159.134118 278.946861 
L 160.407273 295.488 
L 162.953583 295.488 
L 164.226738 295.100954 
L 165.499893 291.678649 
L 166.773048 291.923099 
L 168.046203 294.999099 
L 169.319358 295.488 
L 170.592513 287.095206 
L 171.865668 295.488 
L 173.138824 293.002755 
L 174.411979 295.488 
L 175.685134 293.715735 
L 176.958289 292.289775 
L 178.231444 295.488 
L 179.504599 279.680212 
L 182.050909 295.488 
L 183.324064 295.488 
L 184.597219 281.75804 
L 185.870374 295.488 
L 187.143529 292.615709 
L 188.416684 295.488 
L 193.509305 295.488 
L 194.78246 292.473113 
L 196.055615 295.488 
L 198.601925 295.488 
L 199.87508 281.656186 
L 201.148235 295.488 
L 206.240856 295.488 
L 207.514011 291.087894 
L 208.787166 295.488 
L 210.060321 291.760133 
L 211.333476 295.488 
L 212.606631 295.488 
L 213.879786 295.202808 
L 215.152941 295.488 
L 216.426096 278.824636 
L 217.699251 295.488 
L 218.972406 292.63608 
L 220.245561 295.488 
L 221.518717 295.488 
L 222.791872 294.489828 
L 224.065027 294.978728 
L 225.338182 292.676821 
L 226.611337 295.162066 
L 227.884492 292.88053 
L 229.157647 292.799046 
L 230.430802 274.791206 
L 231.703957 294.958358 
L 234.250267 295.488 
L 249.528128 295.488 
L 250.801283 295.325033 
L 252.074439 295.488 
L 254.620749 295.488 
L 255.893904 295.325033 
L 258.440214 295.488 
L 398.487273 295.488 
L 398.487273 295.488 
" clip-path="url(#pcffa471f67)" style="fill: none; stroke: #2ca02c; stroke-width: 1.5; stroke-linecap: square"/>
   </g>
   <g id="patch_3">
    <path d="M 57.6 307.584 
L 57.6 41.472 
" style="fill: none; stroke: #000000; stroke-width: 0.8; stroke-linejoin: miter; stroke-linecap: square"/>
   </g>
   <g id="patch_4">
    <path d="M 414.72 307.584 
L 414.72 41.472 
" style="fill: none; stroke: #000000; stroke-width: 0.8; stroke-linejoin: miter; stroke-linecap: square"/>
   </g>
   <g id="patch_5">
    <path d="M 57.6 307.584 
L 414.72 307.584 
" style="fill: none; stroke: #000000; stroke-width: 0.8; stroke-linejoin: miter; stroke-linecap: square"/>
   </g>
   <g id="patch_6">
    <path d="M 57.6 41.472 
L 414.72 41.472 
" style="fill: none; stroke: #000000; stroke-width: 0.8; stroke-linejoin: miter; stroke-linecap: square"/>
   </g>
   <g id="legend_1">
    <g id="patch_7">
     <path d="M 333.218438 93.506375 
L 407.72 93.506375 
Q 409.72 93.506375 409.72 91.506375 
L 409.72 48.472 
Q 409.72 46.472 407.72 46.472 
L 333.218438 46.472 
Q 331.218438 46.472 331.218438 48.472 
L 331.218438 91.506375 
Q 331.218438 93.506375 333.218438 93.506375 
z
" style="fill: #ffffff; opacity: 0.8; stroke: #cccccc; stroke-linejoin: miter"/>
    </g>
    <g id="line2d_17">
     <path d="M 335.218438 54.570438 
L 345.218438 54.570438 
L 355.218438 54.570438 
" style="fill: none; stroke: #1f77b4; stroke-width: 1.5; stroke-linecap: square"/>
    </g>
    <g id="text_14">
     <!-- Media -->
     <g transform="translate(363.218438 58.070438)scale(0.1 -0.1)">
      <defs>
       <path id="DejaVuSans-4d" d="M 628 4666 
L 1569 4666 
L 2759 1491 
L 3956 4666 
L 4897 4666 
L 4897 0 
L 4281 0 
L 4281 4097 
L 3078 897 
L 2444 897 
L 1241 4097 
L 1241 0 
L 628 0 
L 628 4666 
z
" transform="scale(0.015625)"/>
       <path id="DejaVuSans-65" d="M 3597 1894 
L 3597 1613 
L 953 1613 
Q 991 1019 1311 708 
Q 1631 397 2203 397 
Q 2534 397 2845 478 
Q 3156 559 3463 722 
L 3463 178 
Q 3153 47 2828 -22 
Q 2503 -91 2169 -91 
Q 1331 -91 842 396 
Q 353 884 353 1716 
Q 353 2575 817 3079 
Q 1281 3584 2069 3584 
Q 2775 3584 3186 3129 
Q 3597 2675 3597 1894 
z
M 3022 2063 
Q 3016 2534 2758 2815 
Q 2500 3097 2075 3097 
Q 1594 3097 1305 2825 
Q 1016 2553 972 2059 
L 3022 2063 
z
" transform="scale(0.015625)"/>
       <path id="DejaVuSans-64" d="M 2906 2969 
L 2906 4863 
L 3481 4863 
L 3481 0 
L 2906 0 
L 2906 525 
Q 2725 213 2448 61 
Q 2172 -91 1784 -91 
Q 1150 -91 751 415 
Q 353 922 353 1747 
Q 353 2572 751 3078 
Q 1150 3584 1784 3584 
Q 2172 3584 2448 3432 
Q 2725 3281 2906 2969 
z
M 947 1747 
Q 947 1113 1208 752 
Q 1469 391 1925 391 
Q 2381 391 2643 752 
Q 2906 1113 2906 1747 
Q 2906 2381 2643 2742 
Q 2381 3103 1925 3103 
Q 1469 3103 1208 2742 
Q 947 2381 947 1747 
z
" transform="scale(0.015625)"/>
       <path id="DejaVuSans-69" d="M 603 3500 
L 1178 3500 
L 1178 0 
L 603 0 
L 603 3500 
z
M 603 4863 
L 1178 4863 
L 1178 4134 
L 603 4134 
L 603 4863 
z
" transform="scale(0.015625)"/>
       <path id="DejaVuSans-61" d="M 2194 1759 
Q 1497 1759 1228 1600 
Q 959 1441 959 1056 
Q 959 750 1161 570 
Q 1363 391 1709 391 
Q 2188 391 2477 730 
Q 2766 1069 2766 1631 
L 2766 1759 
L 2194 1759 
z
M 3341 1997 
L 3341 0 
L 2766 0 
L 2766 531 
Q 2569 213 2275 61 
Q 1981 -91 1556 -91 
Q 1019 -91 701 211 
Q 384 513 384 1019 
Q 384 1609 779 1909 
Q 1175 2209 1959 2209 
L 2766 2209 
L 2766 2266 
Q 2766 2663 2505 2880 
Q 2244 3097 1772 3097 
Q 1472 3097 1187 3025 
Q 903 2953 641 2809 
L 641 3341 
Q 956 3463 1253 3523 
Q 1550 3584 1831 3584 
Q 2591 3584 2966 3190 
Q 3341 2797 3341 1997 
z
" transform="scale(0.015625)"/>
      </defs>
      <use xlink:href="#DejaVuSans-4d"/>
      <use xlink:href="#DejaVuSans-65" x="86.279297"/>
      <use xlink:href="#DejaVuSans-64" x="147.802734"/>
      <use xlink:href="#DejaVuSans-69" x="211.279297"/>
      <use xlink:href="#DejaVuSans-61" x="239.0625"/>
     </g>
    </g>
    <g id="line2d_18">
     <path d="M 335.218438 69.248563 
L 345.218438 69.248563 
L 355.218438 69.248563 
" style="fill: none; stroke: #ff7f0e; stroke-width: 1.5; stroke-linecap: square"/>
    </g>
    <g id="text_15">
     <!-- Mediana -->
     <g transform="translate(363.218438 72.748563)scale(0.1 -0.1)">
      <defs>
       <path id="DejaVuSans-6e" d="M 3513 2113 
L 3513 0 
L 2938 0 
L 2938 2094 
Q 2938 2591 2744 2837 
Q 2550 3084 2163 3084 
Q 1697 3084 1428 2787 
Q 1159 2491 1159 1978 
L 1159 0 
L 581 0 
L 581 3500 
L 1159 3500 
L 1159 2956 
Q 1366 3272 1645 3428 
Q 1925 3584 2291 3584 
Q 2894 3584 3203 3211 
Q 3513 2838 3513 2113 
z
" transform="scale(0.015625)"/>
      </defs>
      <use xlink:href="#DejaVuSans-4d"/>
      <use xlink:href="#DejaVuSans-65" x="86.279297"/>
      <use xlink:href="#DejaVuSans-64" x="147.802734"/>
      <use xlink:href="#DejaVuSans-69" x="211.279297"/>
      <use xlink:href="#DejaVuSans-61" x="239.0625"/>
      <use xlink:href="#DejaVuSans-6e" x="300.341797"/>
      <use xlink:href="#DejaVuSans-61" x="363.720703"/>
     </g>
    </g>
    <g id="line2d_19">
     <path d="M 335.218438 83.926688 
L 345.218438 83.926688 
L 355.218438 83.926688 
" style="fill: none; stroke: #2ca02c; stroke-width: 1.5; stroke-linecap: square"/>
    </g>
    <g id="text_16">
     <!-- Moda -->
     <g transform="translate(363.218438 87.426688)scale(0.1 -0.1)">
      <defs>
       <path id="DejaVuSans-6f" d="M 1959 3097 
Q 1497 3097 1228 2736 
Q 959 2375 959 1747 
Q 959 1119 1226 758 
Q 1494 397 1959 397 
Q 2419 397 2687 759 
Q 2956 1122 2956 1747 
Q 2956 2369 2687 2733 
Q 2419 3097 1959 3097 
z
M 1959 3584 
Q 2709 3584 3137 3096 
Q 3566 2609 3566 1747 
Q 3566 888 3137 398 
Q 2709 -91 1959 -91 
Q 1206 -91 779 398 
Q 353 888 353 1747 
Q 353 2609 779 3096 
Q 1206 3584 1959 3584 
z
" transform="scale(0.015625)"/>
      </defs>
      <use xlink:href="#DejaVuSans-4d"/>
      <use xlink:href="#DejaVuSans-6f" x="86.279297"/>
      <use xlink:href="#DejaVuSans-64" x="147.460938"/>
      <use xlink:href="#DejaVuSans-61" x="210.9375"/>
     </g>
    </g>
   </g>
  </g>
 </g>
 <defs>
  <clipPath id="pcffa471f67">
   <rect x="57.6" y="41.472" width="357.12" height="266.112"/>
  </clipPath>
 </defs>
</svg>
