<?xml version="1.0" encoding="utf-8" standalone="no"?>
<!DOCTYPE svg PUBLIC "-//W3C//DTD SVG 1.1//EN"
  "http://www.w3.org/Graphics/SVG/1.1/DTD/svg11.dtd">
<svg xmlns:xlink="http://www.w3.org/1999/xlink" width="460.8pt" height="345.6pt" viewBox="0 0 460.8 345.6" xmlns="http://www.w3.org/2000/svg" version="1.1">
 <metadata>
  <rdf:RDF xmlns:dc="http://purl.org/dc/elements/1.1/" xmlns:cc="http://creativecommons.org/ns#" xmlns:rdf="http://www.w3.org/1999/02/22-rdf-syntax-ns#">
   <cc:Work>
    <dc:type rdf:resource="http://purl.org/dc/dcmitype/StillImage"/>
    <dc:date>2022-09-20T13:41:10.870860</dc:date>
    <dc:format>image/svg+xml</dc:format>
    <dc:creator>
     <cc:Agent>
      <dc:title>Matplotlib v3.5.3, https://matplotlib.org/</dc:title>
     </cc:Agent>
    </dc:creator>
   </cc:Work>
  </rdf:RDF>
 </metadata>
 <defs>
  <style type="text/css">*{stroke-linejoin: round; stroke-linecap: butt}</style>
 </defs>
 <g id="figure_1">
  <g id="patch_1">
   <path d="M 0 345.6 
L 460.8 345.6 
L 460.8 0 
L 0 0 
z
" style="fill: #ffffff"/>
  </g>
  <g id="axes_1">
   <g id="patch_2">
    <path d="M 57.6 307.584 
L 414.72 307.584 
L 414.72 41.472 
L 57.6 41.472 
z
" style="fill: #ffffff"/>
   </g>
   <g id="matplotlib.axis_1">
    <g id="xtick_1">
     <g id="line2d_1">
      <defs>
       <path id="m7821358c93" d="M 0 0 
L 0 3.5 
" style="stroke: #000000; stroke-width: 0.8"/>
      </defs>
      <g>
       <use xlink:href="#m7821358c93" x="73.832727" y="307.584" style="stroke: #000000; stroke-width: 0.8"/>
      </g>
     </g>
     <g id="text_1">
      <!-- 0 -->
      <g transform="translate(70.651477 322.182437)scale(0.1 -0.1)">
       <defs>
        <path id="DejaVuSans-30" d="M 2034 4250 
Q 1547 4250 1301 3770 
Q 1056 3291 1056 2328 
Q 1056 1369 1301 889 
Q 1547 409 2034 409 
Q 2525 409 2770 889 
Q 3016 1369 3016 2328 
Q 3016 3291 2770 3770 
Q 2525 4250 2034 4250 
z
M 2034 4750 
Q 2819 4750 3233 4129 
Q 3647 3509 3647 2328 
Q 3647 1150 3233 529 
Q 2819 -91 2034 -91 
Q 1250 -91 836 529 
Q 422 1150 422 2328 
Q 422 3509 836 4129 
Q 1250 4750 2034 4750 
z
" transform="scale(0.015625)"/>
       </defs>
       <use xlink:href="#DejaVuSans-30"/>
      </g>
     </g>
    </g>
    <g id="xtick_2">
     <g id="line2d_2">
      <g>
       <use xlink:href="#m7821358c93" x="137.490481" y="307.584" style="stroke: #000000; stroke-width: 0.8"/>
      </g>
     </g>
     <g id="text_2">
      <!-- 50 -->
      <g transform="translate(131.127981 322.182437)scale(0.1 -0.1)">
       <defs>
        <path id="DejaVuSans-35" d="M 691 4666 
L 3169 4666 
L 3169 4134 
L 1269 4134 
L 1269 2991 
Q 1406 3038 1543 3061 
Q 1681 3084 1819 3084 
Q 2600 3084 3056 2656 
Q 3513 2228 3513 1497 
Q 3513 744 3044 326 
Q 2575 -91 1722 -91 
Q 1428 -91 1123 -41 
Q 819 9 494 109 
L 494 744 
Q 775 591 1075 516 
Q 1375 441 1709 441 
Q 2250 441 2565 725 
Q 2881 1009 2881 1497 
Q 2881 1984 2565 2268 
Q 2250 2553 1709 2553 
Q 1456 2553 1204 2497 
Q 953 2441 691 2322 
L 691 4666 
z
" transform="scale(0.015625)"/>
       </defs>
       <use xlink:href="#DejaVuSans-35"/>
       <use xlink:href="#DejaVuSans-30" x="63.623047"/>
      </g>
     </g>
    </g>
    <g id="xtick_3">
     <g id="line2d_3">
      <g>
       <use xlink:href="#m7821358c93" x="201.148235" y="307.584" style="stroke: #000000; stroke-width: 0.8"/>
      </g>
     </g>
     <g id="text_3">
      <!-- 100 -->
      <g transform="translate(191.604485 322.182437)scale(0.1 -0.1)">
       <defs>
        <path id="DejaVuSans-31" d="M 794 531 
L 1825 531 
L 1825 4091 
L 703 3866 
L 703 4441 
L 1819 4666 
L 2450 4666 
L 2450 531 
L 3481 531 
L 3481 0 
L 794 0 
L 794 531 
z
" transform="scale(0.015625)"/>
       </defs>
       <use xlink:href="#DejaVuSans-31"/>
       <use xlink:href="#DejaVuSans-30" x="63.623047"/>
       <use xlink:href="#DejaVuSans-30" x="127.246094"/>
      </g>
     </g>
    </g>
    <g id="xtick_4">
     <g id="line2d_4">
      <g>
       <use xlink:href="#m7821358c93" x="264.805989" y="307.584" style="stroke: #000000; stroke-width: 0.8"/>
      </g>
     </g>
     <g id="text_4">
      <!-- 150 -->
      <g transform="translate(255.262239 322.182437)scale(0.1 -0.1)">
       <use xlink:href="#DejaVuSans-31"/>
       <use xlink:href="#DejaVuSans-35" x="63.623047"/>
       <use xlink:href="#DejaVuSans-30" x="127.246094"/>
      </g>
     </g>
    </g>
    <g id="xtick_5">
     <g id="line2d_5">
      <g>
       <use xlink:href="#m7821358c93" x="328.463743" y="307.584" style="stroke: #000000; stroke-width: 0.8"/>
      </g>
     </g>
     <g id="text_5">
      <!-- 200 -->
      <g transform="translate(318.919993 322.182437)scale(0.1 -0.1)">
       <defs>
        <path id="DejaVuSans-32" d="M 1228 531 
L 3431 531 
L 3431 0 
L 469 0 
L 469 531 
Q 828 903 1448 1529 
Q 2069 2156 2228 2338 
Q 2531 2678 2651 2914 
Q 2772 3150 2772 3378 
Q 2772 3750 2511 3984 
Q 2250 4219 1831 4219 
Q 1534 4219 1204 4116 
Q 875 4013 500 3803 
L 500 4441 
Q 881 4594 1212 4672 
Q 1544 4750 1819 4750 
Q 2544 4750 2975 4387 
Q 3406 4025 3406 3419 
Q 3406 3131 3298 2873 
Q 3191 2616 2906 2266 
Q 2828 2175 2409 1742 
Q 1991 1309 1228 531 
z
" transform="scale(0.015625)"/>
       </defs>
       <use xlink:href="#DejaVuSans-32"/>
       <use xlink:href="#DejaVuSans-30" x="63.623047"/>
       <use xlink:href="#DejaVuSans-30" x="127.246094"/>
      </g>
     </g>
    </g>
    <g id="xtick_6">
     <g id="line2d_6">
      <g>
       <use xlink:href="#m7821358c93" x="392.121497" y="307.584" style="stroke: #000000; stroke-width: 0.8"/>
      </g>
     </g>
     <g id="text_6">
      <!-- 250 -->
      <g transform="translate(382.577747 322.182437)scale(0.1 -0.1)">
       <use xlink:href="#DejaVuSans-32"/>
       <use xlink:href="#DejaVuSans-35" x="63.623047"/>
       <use xlink:href="#DejaVuSans-30" x="127.246094"/>
      </g>
     </g>
    </g>
   </g>
   <g id="matplotlib.axis_2">
    <g id="ytick_1">
     <g id="line2d_7">
      <defs>
       <path id="m8a31bd207a" d="M 0 0 
L -3.5 0 
" style="stroke: #000000; stroke-width: 0.8"/>
      </defs>
      <g>
       <use xlink:href="#m8a31bd207a" x="57.6" y="295.742849" style="stroke: #000000; stroke-width: 0.8"/>
      </g>
     </g>
     <g id="text_7">
      <!-- 0 -->
      <g transform="translate(44.2375 299.542068)scale(0.1 -0.1)">
       <use xlink:href="#DejaVuSans-30"/>
      </g>
     </g>
    </g>
    <g id="ytick_2">
     <g id="line2d_8">
      <g>
       <use xlink:href="#m8a31bd207a" x="57.6" y="261.170243" style="stroke: #000000; stroke-width: 0.8"/>
      </g>
     </g>
     <g id="text_8">
      <!-- 2500 -->
      <g transform="translate(25.15 264.969462)scale(0.1 -0.1)">
       <use xlink:href="#DejaVuSans-32"/>
       <use xlink:href="#DejaVuSans-35" x="63.623047"/>
       <use xlink:href="#DejaVuSans-30" x="127.246094"/>
       <use xlink:href="#DejaVuSans-30" x="190.869141"/>
      </g>
     </g>
    </g>
    <g id="ytick_3">
     <g id="line2d_9">
      <g>
       <use xlink:href="#m8a31bd207a" x="57.6" y="226.597637" style="stroke: #000000; stroke-width: 0.8"/>
      </g>
     </g>
     <g id="text_9">
      <!-- 5000 -->
      <g transform="translate(25.15 230.396856)scale(0.1 -0.1)">
       <use xlink:href="#DejaVuSans-35"/>
       <use xlink:href="#DejaVuSans-30" x="63.623047"/>
       <use xlink:href="#DejaVuSans-30" x="127.246094"/>
       <use xlink:href="#DejaVuSans-30" x="190.869141"/>
      </g>
     </g>
    </g>
    <g id="ytick_4">
     <g id="line2d_10">
      <g>
       <use xlink:href="#m8a31bd207a" x="57.6" y="192.025031" style="stroke: #000000; stroke-width: 0.8"/>
      </g>
     </g>
     <g id="text_10">
      <!-- 7500 -->
      <g transform="translate(25.15 195.82425)scale(0.1 -0.1)">
       <defs>
        <path id="DejaVuSans-37" d="M 525 4666 
L 3525 4666 
L 3525 4397 
L 1831 0 
L 1172 0 
L 2766 4134 
L 525 4134 
L 525 4666 
z
" transform="scale(0.015625)"/>
       </defs>
       <use xlink:href="#DejaVuSans-37"/>
       <use xlink:href="#DejaVuSans-35" x="63.623047"/>
       <use xlink:href="#DejaVuSans-30" x="127.246094"/>
       <use xlink:href="#DejaVuSans-30" x="190.869141"/>
      </g>
     </g>
    </g>
    <g id="ytick_5">
     <g id="line2d_11">
      <g>
       <use xlink:href="#m8a31bd207a" x="57.6" y="157.452425" style="stroke: #000000; stroke-width: 0.8"/>
      </g>
     </g>
     <g id="text_11">
      <!-- 10000 -->
      <g transform="translate(18.7875 161.251644)scale(0.1 -0.1)">
       <use xlink:href="#DejaVuSans-31"/>
       <use xlink:href="#DejaVuSans-30" x="63.623047"/>
       <use xlink:href="#DejaVuSans-30" x="127.246094"/>
       <use xlink:href="#DejaVuSans-30" x="190.869141"/>
       <use xlink:href="#DejaVuSans-30" x="254.492188"/>
      </g>
     </g>
    </g>
    <g id="ytick_6">
     <g id="line2d_12">
      <g>
       <use xlink:href="#m8a31bd207a" x="57.6" y="122.879819" style="stroke: #000000; stroke-width: 0.8"/>
      </g>
     </g>
     <g id="text_12">
      <!-- 12500 -->
      <g transform="translate(18.7875 126.679038)scale(0.1 -0.1)">
       <use xlink:href="#DejaVuSans-31"/>
       <use xlink:href="#DejaVuSans-32" x="63.623047"/>
       <use xlink:href="#DejaVuSans-35" x="127.246094"/>
       <use xlink:href="#DejaVuSans-30" x="190.869141"/>
       <use xlink:href="#DejaVuSans-30" x="254.492188"/>
      </g>
     </g>
    </g>
    <g id="ytick_7">
     <g id="line2d_13">
      <g>
       <use xlink:href="#m8a31bd207a" x="57.6" y="88.307213" style="stroke: #000000; stroke-width: 0.8"/>
      </g>
     </g>
     <g id="text_13">
      <!-- 15000 -->
      <g transform="translate(18.7875 92.106432)scale(0.1 -0.1)">
       <use xlink:href="#DejaVuSans-31"/>
       <use xlink:href="#DejaVuSans-35" x="63.623047"/>
       <use xlink:href="#DejaVuSans-30" x="127.246094"/>
       <use xlink:href="#DejaVuSans-30" x="190.869141"/>
       <use xlink:href="#DejaVuSans-30" x="254.492188"/>
      </g>
     </g>
    </g>
    <g id="ytick_8">
     <g id="line2d_14">
      <g>
       <use xlink:href="#m8a31bd207a" x="57.6" y="53.734607" style="stroke: #000000; stroke-width: 0.8"/>
      </g>
     </g>
     <g id="text_14">
      <!-- 17500 -->
      <g transform="translate(18.7875 57.533826)scale(0.1 -0.1)">
       <use xlink:href="#DejaVuSans-31"/>
       <use xlink:href="#DejaVuSans-37" x="63.623047"/>
       <use xlink:href="#DejaVuSans-35" x="127.246094"/>
       <use xlink:href="#DejaVuSans-30" x="190.869141"/>
       <use xlink:href="#DejaVuSans-30" x="254.492188"/>
      </g>
     </g>
    </g>
   </g>
   <g id="line2d_15">
    <path d="M 73.832727 191.049861 
L 75.105882 243.88171 
L 76.379037 218.810102 
L 77.652193 205.647976 
L 78.925348 193.674702 
L 80.198503 168.714619 
L 81.471658 167.505247 
L 82.744813 123.324579 
L 84.017968 113.499267 
L 85.291123 80.957746 
L 86.564278 97.76717 
L 87.837433 96.537724 
L 89.110588 97.274232 
L 90.383743 83.625859 
L 91.656898 82.254107 
L 92.930053 68.165882 
L 94.203209 69.490793 
L 95.476364 81.566224 
L 96.749519 77.963089 
L 98.022674 109.561559 
L 100.568984 133.650413 
L 101.842139 156.936736 
L 103.115294 172.186601 
L 104.388449 191.378189 
L 105.661604 213.466739 
L 106.934759 227.041951 
L 108.207914 243.974944 
L 112.02738 269.69161 
L 113.300535 274.589768 
L 114.57369 278.57387 
L 115.846845 280.236924 
L 117.12 279.403613 
L 118.393155 282.376411 
L 119.66631 284.382068 
L 120.939465 285.683782 
L 122.21262 286.344454 
L 123.485775 286.813303 
L 126.032086 287.32587 
L 127.305241 286.778953 
L 128.578396 287.874124 
L 132.397861 288.658811 
L 133.671016 288.630707 
L 137.490481 289.114723 
L 138.763636 288.915317 
L 141.309947 289.541639 
L 142.583102 289.591156 
L 143.856257 289.787439 
L 146.402567 289.866399 
L 150.222032 290.251827 
L 151.495187 290.406177 
L 152.768342 290.373166 
L 159.134118 290.787591 
L 161.680428 290.874134 
L 165.499893 291.108782 
L 166.773048 290.981198 
L 168.046203 291.134656 
L 173.138824 291.212723 
L 174.411979 291.131087 
L 183.324064 291.467891 
L 189.68984 291.528114 
L 190.962995 291.619564 
L 192.23615 291.486627 
L 193.509305 291.559787 
L 196.055615 291.42908 
L 198.601925 291.48975 
L 199.87508 291.393393 
L 202.42139 291.422389 
L 203.694545 291.247072 
L 208.787166 291.22566 
L 210.060321 291.435326 
L 212.606631 291.560233 
L 213.879786 291.342537 
L 215.152941 291.546404 
L 217.699251 291.067295 
L 218.972406 291.491534 
L 220.245561 291.612427 
L 222.791872 291.543728 
L 224.065027 291.742687 
L 229.157647 291.331831 
L 230.430802 291.163652 
L 231.703957 291.486627 
L 234.250267 291.529006 
L 235.523422 291.356813 
L 236.796578 291.382686 
L 240.616043 290.973168 
L 241.889198 290.951309 
L 243.162353 290.746996 
L 244.435508 290.730045 
L 246.981818 290.411977 
L 253.347594 290.349077 
L 257.167059 290.767963 
L 260.986524 291.387147 
L 262.259679 291.215399 
L 263.532834 291.529006 
L 264.805989 291.220753 
L 266.079144 291.461646 
L 267.352299 290.881272 
L 268.625455 291.594583 
L 269.89861 291.913989 
L 271.171765 291.867149 
L 273.718075 292.103581 
L 277.53754 292.177633 
L 278.810695 292.161574 
L 280.08385 292.276667 
L 285.176471 292.191908 
L 288.995936 292.256146 
L 296.634866 292.194585 
L 297.908021 292.226258 
L 299.181176 291.923357 
L 300.454332 291.061942 
L 301.727487 292.340013 
L 303.000642 292.387299 
L 304.273797 292.313247 
L 305.546952 292.47072 
L 306.820107 292.337782 
L 308.093262 292.454214 
L 309.366417 292.366333 
L 310.639572 292.448861 
L 311.912727 292.213321 
L 313.185882 292.403805 
L 318.278503 292.354734 
L 320.824813 292.330199 
L 322.097968 292.362764 
L 324.644278 292.256593 
L 331.010053 292.13793 
L 341.195294 292.060755 
L 342.468449 291.844398 
L 343.741604 291.840829 
L 345.014759 291.960829 
L 352.65369 291.486181 
L 356.473155 291.149377 
L 357.74631 291.159637 
L 361.565775 290.54313 
L 362.83893 290.494505 
L 366.658396 289.69822 
L 367.931551 289.039333 
L 369.204706 288.890336 
L 370.477861 288.613309 
L 371.751016 288.17078 
L 373.024171 287.125126 
L 374.297326 287.241111 
L 376.843636 286.803489 
L 378.116791 286.062074 
L 379.389947 283.906974 
L 380.663102 285.28051 
L 381.936257 285.111885 
L 383.209412 283.79768 
L 384.482567 282.143994 
L 385.755722 281.245106 
L 387.028877 279.511569 
L 388.302032 279.84525 
L 389.575187 279.781458 
L 392.121497 273.370135 
L 393.394652 278.004203 
L 394.667807 277.168215 
L 395.940963 282.919312 
L 397.214118 286.860143 
L 398.487273 258.790756 
L 398.487273 258.790756 
" clip-path="url(#p8809a4b435)" style="fill: none; stroke: #1f77b4; stroke-width: 1.5; stroke-linecap: square"/>
   </g>
   <g id="line2d_16">
    <path d="M 73.832727 272.244014 
L 75.105882 292.227639 
L 77.652193 289.044983 
L 78.925348 288.483261 
L 80.198503 285.693087 
L 81.471658 279.79072 
L 82.744813 272.329622 
L 84.017968 278.195112 
L 85.291123 280.021862 
L 86.564278 277.298858 
L 87.837433 266.868467 
L 89.110588 274.698998 
L 90.383743 255.923768 
L 91.656898 253.913289 
L 92.930053 216.433291 
L 94.203209 207.121736 
L 95.476364 234.413022 
L 96.749519 127.719325 
L 98.022674 145.882126 
L 99.295829 141.352786 
L 100.568984 67.440505 
L 101.842139 53.568 
L 103.115294 53.68851 
L 104.388449 126.463517 
L 105.661604 149.233364 
L 106.934759 167.989497 
L 108.207914 180.672046 
L 109.48107 180.180127 
L 110.754225 166.490034 
L 112.02738 174.765069 
L 113.300535 186.995211 
L 114.57369 242.185602 
L 115.846845 212.405747 
L 117.12 169.317085 
L 118.393155 204.863651 
L 119.66631 187.962585 
L 120.939465 242.251455 
L 122.21262 259.251958 
L 123.485775 256.555294 
L 124.75893 236.422843 
L 126.032086 268.348175 
L 127.305241 212.598695 
L 128.578396 271.736949 
L 129.851551 263.869541 
L 131.124706 243.004808 
L 132.397861 266.850687 
L 133.671016 268.219104 
L 134.944171 257.535181 
L 136.217326 239.841909 
L 137.490481 256.260275 
L 138.763636 264.292314 
L 140.036791 277.666974 
L 141.309947 273.935767 
L 142.583102 259.839363 
L 143.856257 283.973017 
L 145.129412 275.800053 
L 146.402567 286.665729 
L 147.675722 285.747086 
L 148.948877 276.305801 
L 150.222032 273.853451 
L 151.495187 285.344068 
L 152.768342 287.803004 
L 154.041497 281.766956 
L 155.314652 288.509602 
L 156.587807 286.635437 
L 157.860963 289.000862 
L 159.134118 288.216558 
L 160.407273 276.227437 
L 161.680428 286.026959 
L 162.953583 279.557602 
L 164.226738 286.738826 
L 165.499893 281.05048 
L 166.773048 282.772525 
L 168.046203 289.56456 
L 169.319358 289.241883 
L 170.592513 289.783849 
L 171.865668 285.623942 
L 173.138824 289.141787 
L 174.411979 284.665128 
L 175.685134 290.502301 
L 176.958289 288.097365 
L 178.231444 290.80193 
L 179.504599 291.352458 
L 180.777754 290.664298 
L 182.050909 285.870889 
L 183.324064 291.054146 
L 184.597219 291.334678 
L 185.870374 290.217818 
L 187.143529 287.442131 
L 188.416684 290.537203 
L 189.68984 290.582641 
L 190.962995 285.462603 
L 192.23615 278.994562 
L 193.509305 286.526122 
L 194.78246 289.93531 
L 196.055615 287.259061 
L 197.32877 290.147356 
L 198.601925 284.01187 
L 199.87508 283.085325 
L 201.148235 284.733615 
L 202.42139 289.704826 
L 203.694545 287.047674 
L 204.967701 286.189615 
L 206.240856 279.932303 
L 207.514011 288.514211 
L 208.787166 268.950726 
L 210.060321 278.938587 
L 211.333476 286.145494 
L 212.606631 287.303841 
L 213.879786 290.076893 
L 215.152941 290.094015 
L 216.426096 281.953977 
L 217.699251 266.935637 
L 218.972406 284.624299 
L 220.245561 287.207038 
L 221.518717 277.369979 
L 222.791872 287.575154 
L 224.065027 287.114844 
L 225.338182 285.533065 
L 226.611337 283.586463 
L 227.884492 283.336223 
L 229.157647 275.827053 
L 230.430802 271.35237 
L 231.703957 275.053944 
L 232.977112 273.133682 
L 234.250267 269.443962 
L 235.523422 257.234893 
L 236.796578 255.441069 
L 238.069733 238.365494 
L 239.342888 218.126361 
L 240.616043 213.270392 
L 241.889198 228.792504 
L 243.162353 246.319169 
L 244.435508 254.790445 
L 245.708663 260.753397 
L 246.981818 245.846347 
L 248.254973 260.053384 
L 249.528128 261.818891 
L 252.074439 266.334403 
L 253.347594 267.048904 
L 254.620749 267.220779 
L 255.893904 267.678454 
L 257.167059 270.994132 
L 258.440214 274.697023 
L 259.713369 279.9784 
L 260.986524 283.911116 
L 262.259679 287.097064 
L 263.532834 289.497391 
L 264.805989 291.073901 
L 266.079144 292.045885 
L 267.352299 292.656997 
L 268.625455 293.015894 
L 269.89861 292.533853 
L 271.171765 276.41775 
L 272.44492 290.983025 
L 273.718075 292.138738 
L 274.99123 292.955968 
L 276.264385 293.393888 
L 277.53754 293.418912 
L 278.810695 290.948123 
L 280.08385 293.951659 
L 281.357005 294.170948 
L 286.449626 294.41131 
L 287.722781 294.403408 
L 288.995936 294.207167 
L 290.269091 286.566951 
L 291.542246 293.773199 
L 292.815401 294.315824 
L 296.634866 294.681306 
L 299.181176 294.790621 
L 300.454332 294.471236 
L 301.727487 294.985545 
L 304.273797 295.171249 
L 310.639572 295.273321 
L 311.912727 294.950643 
L 313.185882 295.228541 
L 319.551658 295.328637 
L 324.644278 295.230516 
L 325.917433 294.883473 
L 327.190588 295.30032 
L 329.736898 295.401733 
L 337.375829 295.445196 
L 350.10738 295.473512 
L 360.29262 295.45244 
L 364.112086 295.453098 
L 369.204706 295.411611 
L 370.477861 294.701062 
L 371.751016 295.204834 
L 378.116791 295.35827 
L 384.482567 295.153469 
L 385.755722 295.356953 
L 388.302032 295.379343 
L 390.848342 295.356953 
L 392.121497 294.253264 
L 393.394652 295.268052 
L 394.667807 295.227882 
L 397.214118 295.437952 
L 398.487273 294.510089 
L 398.487273 294.510089 
" clip-path="url(#p8809a4b435)" style="fill: none; stroke: #ff7f0e; stroke-width: 1.5; stroke-linecap: square"/>
   </g>
   <g id="line2d_17">
    <path d="M 73.832727 244.177423 
L 75.105882 267.994108 
L 76.379037 242.358136 
L 77.652193 246.932988 
L 80.198503 242.533304 
L 81.471658 240.701724 
L 82.744813 232.014525 
L 84.017968 226.787146 
L 85.291123 219.508973 
L 86.564278 210.488852 
L 89.110588 196.401155 
L 90.383743 185.670842 
L 91.656898 173.819353 
L 92.930053 155.839037 
L 94.203209 110.505387 
L 95.476364 118.719838 
L 96.749519 70.390408 
L 98.022674 120.199546 
L 99.295829 131.619262 
L 100.568984 126.510199 
L 101.842139 146.364094 
L 103.115294 173.992984 
L 104.388449 193.445325 
L 105.661604 210.585143 
L 106.934759 216.290391 
L 108.207914 222.745481 
L 109.48107 223.289423 
L 110.754225 228.755992 
L 112.02738 236.893103 
L 114.57369 252.257682 
L 115.846845 255.497263 
L 117.12 256.595391 
L 119.66631 263.678934 
L 120.939465 268.183617 
L 122.21262 270.209827 
L 123.485775 271.245469 
L 124.75893 271.626024 
L 126.032086 271.754583 
L 127.305241 268.03918 
L 128.578396 273.886304 
L 129.851551 275.225672 
L 131.124706 275.475107 
L 132.397861 276.156316 
L 133.671016 275.22977 
L 134.944171 274.915799 
L 136.217326 274.118837 
L 138.763636 277.128958 
L 140.036791 279.264265 
L 141.309947 280.212323 
L 142.583102 280.056106 
L 143.856257 281.643372 
L 145.129412 281.818028 
L 146.402567 282.684648 
L 147.675722 282.604235 
L 148.948877 281.967587 
L 150.222032 283.036008 
L 151.495187 284.326719 
L 152.768342 284.927002 
L 154.041497 285.214339 
L 155.314652 285.818207 
L 156.587807 285.97596 
L 157.860963 286.256639 
L 159.134118 286.374442 
L 160.407273 286.286858 
L 161.680428 286.554219 
L 162.953583 286.4021 
L 164.226738 287.148356 
L 165.499893 287.281524 
L 168.046203 287.91049 
L 169.319358 287.921758 
L 170.592513 288.082584 
L 171.865668 288.075414 
L 174.411979 288.489773 
L 175.685134 288.716159 
L 184.597219 289.116689 
L 189.68984 289.177127 
L 192.23615 288.790939 
L 193.509305 288.895425 
L 194.78246 288.859572 
L 196.055615 288.974302 
L 198.601925 288.927693 
L 199.87508 288.684404 
L 201.148235 288.879547 
L 204.967701 288.509748 
L 206.240856 288.273118 
L 207.514011 288.542528 
L 208.787166 286.298638 
L 210.060321 288.589649 
L 215.152941 288.454432 
L 216.426096 288.056463 
L 217.699251 287.237476 
L 218.972406 287.76759 
L 222.791872 287.564251 
L 224.065027 287.65286 
L 225.338182 287.271793 
L 229.157647 285.496041 
L 231.703957 285.451481 
L 232.977112 285.482724 
L 234.250267 285.059658 
L 235.523422 283.501586 
L 236.796578 284.689347 
L 240.616043 283.45344 
L 241.889198 283.28698 
L 243.162353 282.441359 
L 244.435508 279.173608 
L 245.708663 278.533374 
L 246.981818 271.598366 
L 248.254973 275.999074 
L 249.528128 274.635121 
L 250.801283 271.552781 
L 252.074439 274.116788 
L 253.347594 274.104496 
L 254.620749 272.834272 
L 255.893904 267.406629 
L 257.167059 271.373516 
L 258.440214 268.722437 
L 259.713369 271.720266 
L 260.986524 274.348809 
L 263.532834 280.492489 
L 264.805989 281.602398 
L 266.079144 283.608633 
L 267.352299 284.519813 
L 268.625455 285.255826 
L 269.89861 284.325695 
L 271.171765 276.833939 
L 272.44492 285.331629 
L 274.99123 286.886628 
L 276.264385 287.400352 
L 277.53754 288.098462 
L 278.810695 286.122958 
L 280.08385 288.061585 
L 281.357005 289.437318 
L 282.63016 290.020699 
L 285.176471 290.548764 
L 287.722781 290.869393 
L 288.995936 290.81254 
L 290.269091 289.389685 
L 291.542246 290.789491 
L 292.815401 291.031244 
L 295.361711 291.170558 
L 297.908021 290.932391 
L 300.454332 290.239915 
L 301.727487 291.378506 
L 303.000642 291.802597 
L 304.273797 291.809767 
L 306.820107 292.05869 
L 310.639572 292.049471 
L 311.912727 291.768792 
L 313.185882 291.884034 
L 315.732193 292.345003 
L 318.278503 292.42644 
L 320.824813 292.570877 
L 323.371123 292.421318 
L 324.644278 292.413636 
L 325.917433 292.129884 
L 327.190588 292.475098 
L 333.556364 292.738874 
L 336.102674 292.718387 
L 339.922139 292.843872 
L 341.195294 292.896628 
L 342.468449 292.740923 
L 343.741604 292.707119 
L 345.014759 292.820312 
L 346.287914 292.744508 
L 347.56107 292.878189 
L 348.834225 292.698924 
L 350.10738 292.882286 
L 352.65369 292.648729 
L 353.926845 292.559609 
L 355.2 291.859962 
L 356.473155 292.41466 
L 357.74631 292.577535 
L 360.29262 292.493537 
L 361.565775 292.335271 
L 362.83893 292.58573 
L 364.112086 292.645144 
L 365.385241 292.506341 
L 366.658396 292.090446 
L 367.931551 292.059202 
L 369.204706 291.737037 
L 370.477861 289.824532 
L 371.751016 285.415628 
L 373.024171 285.880181 
L 374.297326 264.810355 
L 375.570481 257.999295 
L 376.843636 278.381255 
L 379.389947 251.44228 
L 380.663102 265.678511 
L 381.936257 257.198235 
L 383.209412 199.866611 
L 384.482567 249.693163 
L 385.755722 261.544652 
L 387.028877 277.68212 
L 388.302032 285.979033 
L 389.575187 290.608689 
L 390.848342 292.14525 
L 392.121497 291.716549 
L 393.394652 293.084088 
L 394.667807 292.95348 
L 395.940963 292.169322 
L 397.214118 293.722785 
L 398.487273 287.262061 
L 398.487273 287.262061 
" clip-path="url(#p8809a4b435)" style="fill: none; stroke: #2ca02c; stroke-width: 1.5; stroke-linecap: square"/>
   </g>
   <g id="line2d_18">
    <path d="M 73.832727 268.257487 
L 75.105882 292.617768 
L 77.652193 289.840953 
L 78.925348 288.113451 
L 80.198503 285.64652 
L 81.471658 281.890665 
L 82.744813 275.554705 
L 84.017968 273.4716 
L 85.291123 271.823686 
L 86.564278 269.063804 
L 87.837433 264.844535 
L 89.110588 264.696085 
L 90.383743 256.243435 
L 91.656898 249.635693 
L 92.930053 234.117532 
L 94.203209 219.997233 
L 95.476364 216.476189 
L 96.749519 165.694252 
L 98.022674 165.766502 
L 99.295829 130.669803 
L 100.568984 107.332871 
L 101.842139 123.791407 
L 103.115294 134.364133 
L 104.388449 139.539017 
L 105.661604 138.038143 
L 106.934759 127.635316 
L 108.207914 124.038919 
L 109.48107 122.44491 
L 110.754225 129.930091 
L 114.57369 219.150275 
L 115.846845 234.619046 
L 117.12 244.90475 
L 118.393155 253.695223 
L 120.939465 267.75823 
L 122.21262 271.207306 
L 123.485775 273.455513 
L 124.75893 274.731736 
L 126.032086 276.398559 
L 127.305241 275.327232 
L 128.578396 278.659749 
L 129.851551 279.79881 
L 132.397861 281.367983 
L 133.671016 281.756608 
L 134.944171 282.300738 
L 136.217326 282.431691 
L 137.490481 283.173379 
L 138.763636 283.439235 
L 140.036791 284.262769 
L 141.309947 284.807181 
L 142.583102 285.05554 
L 143.856257 285.509358 
L 145.129412 285.662889 
L 147.675722 286.155654 
L 148.948877 286.208995 
L 150.222032 286.402319 
L 151.495187 286.884642 
L 152.768342 287.055106 
L 154.041497 287.078249 
L 155.314652 287.346363 
L 159.134118 287.755307 
L 160.407273 287.532632 
L 161.680428 287.880898 
L 164.226738 287.901782 
L 165.499893 288.097647 
L 169.319358 288.162559 
L 170.592513 288.32004 
L 171.865668 288.249766 
L 173.138824 288.417973 
L 174.411979 288.33895 
L 175.685134 288.499818 
L 176.958289 288.419948 
L 178.231444 288.477522 
L 179.504599 288.38213 
L 180.777754 288.440833 
L 182.050909 288.356165 
L 184.597219 288.507156 
L 187.143529 288.370277 
L 189.68984 288.383541 
L 190.962995 288.262184 
L 193.509305 288.381566 
L 194.78246 288.196426 
L 198.601925 288.084382 
L 199.87508 287.869891 
L 203.694545 287.779861 
L 206.240856 287.35991 
L 207.514011 287.292176 
L 208.787166 286.80449 
L 210.060321 287.278629 
L 212.606631 287.078813 
L 215.152941 286.915969 
L 216.426096 286.685391 
L 218.972406 286.455095 
L 220.245561 286.097798 
L 222.791872 285.965999 
L 224.065027 285.486498 
L 225.338182 284.88818 
L 226.611337 284.732956 
L 227.884492 284.319214 
L 229.157647 283.70114 
L 230.430802 282.937156 
L 232.977112 281.677302 
L 234.250267 280.918398 
L 235.523422 279.187792 
L 236.796578 278.588346 
L 238.069733 277.691434 
L 239.342888 276.601479 
L 240.616043 275.759319 
L 244.435508 271.690758 
L 245.708663 270.765059 
L 246.981818 268.72965 
L 248.254973 267.866887 
L 249.528128 265.56167 
L 250.801283 263.700958 
L 252.074439 261.220197 
L 257.167059 249.666173 
L 258.440214 232.461434 
L 259.713369 230.722925 
L 260.986524 233.799182 
L 262.259679 229.11029 
L 263.532834 229.29797 
L 264.805989 221.114845 
L 266.079144 222.611769 
L 267.352299 219.161281 
L 271.171765 234.947839 
L 272.44492 243.0113 
L 274.99123 256.598193 
L 276.264385 264.300969 
L 277.53754 269.638697 
L 278.810695 270.670231 
L 280.08385 272.917027 
L 281.357005 277.888709 
L 283.903316 282.654366 
L 286.449626 285.207941 
L 287.722781 285.923665 
L 288.995936 286.457071 
L 290.269091 282.537243 
L 291.542246 287.348056 
L 292.815401 288.222108 
L 295.361711 289.347623 
L 296.634866 289.481398 
L 297.908021 289.847726 
L 299.181176 289.667102 
L 300.454332 289.620817 
L 301.727487 290.855835 
L 303.000642 291.221317 
L 309.366417 292.180601 
L 310.639572 292.30478 
L 311.912727 292.225193 
L 313.185882 292.369692 
L 314.459037 292.761139 
L 317.005348 293.081464 
L 320.824813 293.361996 
L 324.644278 293.445535 
L 325.917433 292.853991 
L 327.190588 293.573948 
L 331.010053 293.933785 
L 342.468449 294.410464 
L 343.741604 294.36813 
L 345.014759 294.579234 
L 353.926845 294.705671 
L 355.2 294.566816 
L 356.473155 294.777074 
L 360.29262 294.886296 
L 361.565775 294.822795 
L 364.112086 294.972657 
L 369.204706 295.035593 
L 370.477861 293.422957 
L 371.751016 294.778768 
L 373.024171 294.986768 
L 376.843636 295.150458 
L 378.116791 295.076233 
L 379.389947 294.818279 
L 380.663102 295.147072 
L 383.209412 295.229199 
L 384.482567 294.967859 
L 385.755722 295.28254 
L 388.302032 295.333623 
L 390.848342 295.292136 
L 392.121497 295.088651 
L 393.394652 295.290724 
L 397.214118 295.414904 
L 398.487273 294.361074 
L 398.487273 294.361074 
" clip-path="url(#p8809a4b435)" style="fill: none; stroke: #d62728; stroke-width: 1.5; stroke-linecap: square"/>
   </g>
   <g id="line2d_19">
    <path d="M 73.832727 266.617898 
L 75.105882 276.47175 
L 76.379037 261.166951 
L 77.652193 240.185989 
L 80.198503 207.014067 
L 81.471658 186.225394 
L 82.744813 180.150164 
L 84.017968 166.445912 
L 85.291123 157.140284 
L 86.564278 167.597016 
L 87.837433 173.742049 
L 89.110588 176.597417 
L 91.656898 182.741793 
L 92.930053 183.066117 
L 94.203209 172.142161 
L 95.476364 173.541199 
L 96.749519 145.26871 
L 98.022674 151.189186 
L 99.295829 143.018527 
L 100.568984 123.568308 
L 101.842139 117.97479 
L 103.115294 114.368702 
L 104.388449 115.498074 
L 105.661604 119.486436 
L 106.934759 116.92016 
L 108.207914 116.434827 
L 109.48107 124.635778 
L 110.754225 130.288235 
L 112.02738 140.617871 
L 113.300535 161.556687 
L 117.12 230.346954 
L 118.393155 247.421212 
L 119.66631 259.276982 
L 120.939465 268.19836 
L 122.21262 273.665113 
L 123.485775 277.047301 
L 124.75893 279.263241 
L 126.032086 280.658986 
L 127.305241 281.543716 
L 128.578396 283.832422 
L 129.851551 285.032585 
L 132.397861 286.421087 
L 133.671016 287.071711 
L 134.944171 287.189587 
L 136.217326 287.551447 
L 137.490481 288.233679 
L 141.309947 289.796691 
L 142.583102 289.980419 
L 145.129412 290.491435 
L 147.675722 290.59647 
L 148.948877 290.49374 
L 151.495187 291.308666 
L 154.041497 291.754488 
L 162.953583 292.389307 
L 178.231444 293.144307 
L 179.504599 293.095905 
L 180.777754 293.255268 
L 198.601925 293.253293 
L 201.148235 293.211476 
L 202.42139 293.292475 
L 207.514011 293.021821 
L 208.787166 293.006016 
L 210.060321 292.873982 
L 211.333476 293.011943 
L 213.879786 292.9777 
L 215.152941 293.003382 
L 217.699251 292.665888 
L 224.065027 292.667205 
L 227.884492 292.30765 
L 230.430802 291.82923 
L 231.703957 291.525979 
L 232.977112 291.34258 
L 234.250267 291.032743 
L 235.523422 289.945188 
L 236.796578 289.896457 
L 238.069733 289.730838 
L 243.162353 289.674863 
L 244.435508 289.421002 
L 245.708663 289.535585 
L 246.981818 289.452611 
L 248.254973 289.756191 
L 249.528128 289.391697 
L 250.801283 289.557316 
L 252.074439 290.458509 
L 254.620749 291.143047 
L 255.893904 291.309983 
L 257.167059 291.313605 
L 258.440214 291.496675 
L 260.986524 292.206237 
L 262.259679 292.115031 
L 263.532834 292.148286 
L 264.805989 291.844047 
L 266.079144 291.727488 
L 267.352299 291.476261 
L 268.625455 291.339287 
L 269.89861 290.942855 
L 271.171765 290.735419 
L 272.44492 290.383108 
L 273.718075 290.25239 
L 274.99123 290.241854 
L 276.264385 290.508228 
L 277.53754 291.073572 
L 280.08385 291.591832 
L 281.357005 291.750207 
L 285.176471 293.192708 
L 286.449626 293.520654 
L 288.995936 293.737638 
L 290.269091 293.454802 
L 294.088556 294.132095 
L 303.000642 294.555527 
L 306.820107 294.62566 
L 318.278503 294.811035 
L 323.371123 294.75078 
L 329.736898 294.783707 
L 337.375829 294.793585 
L 346.287914 294.775475 
L 353.926845 294.547625 
L 355.2 294.007963 
L 356.473155 294.364884 
L 357.74631 293.944086 
L 359.019465 294.241081 
L 360.29262 293.297414 
L 361.565775 293.899965 
L 362.83893 291.506882 
L 364.112086 290.861198 
L 365.385241 292.598389 
L 366.658396 288.847755 
L 367.931551 292.464708 
L 369.204706 291.430164 
L 370.477861 285.634807 
L 371.751016 289.178005 
L 373.024171 278.690982 
L 374.297326 275.923527 
L 375.570481 275.71642 
L 376.843636 273.045769 
L 378.116791 285.284472 
L 379.389947 252.299242 
L 380.663102 285.478737 
L 381.936257 261.789258 
L 383.209412 255.194451 
L 384.482567 257.651081 
L 385.755722 249.985182 
L 387.028877 244.89346 
L 388.302032 251.825103 
L 389.575187 264.532676 
L 390.848342 278.926734 
L 393.394652 286.285102 
L 394.667807 284.487655 
L 395.940963 289.465123 
L 397.214118 292.894396 
L 398.487273 288.148071 
L 398.487273 288.148071 
" clip-path="url(#p8809a4b435)" style="fill: none; stroke: #9467bd; stroke-width: 1.5; stroke-linecap: square"/>
   </g>
   <g id="line2d_20">
    <path d="M 73.832727 202.747293 
L 75.105882 256.197838 
L 76.379037 236.491453 
L 77.652193 229.11582 
L 80.198503 208.023505 
L 81.471658 216.281604 
L 82.744813 184.158467 
L 84.017968 194.130503 
L 85.291123 194.09593 
L 86.564278 169.147041 
L 87.837433 164.913626 
L 89.110588 181.441924 
L 90.383743 180.2993 
L 91.656898 176.442293 
L 92.930053 160.719969 
L 94.203209 167.710982 
L 95.476364 199.83239 
L 96.749519 172.401188 
L 98.022674 214.787635 
L 99.295829 218.036596 
L 100.568984 223.158527 
L 101.842139 232.232108 
L 103.115294 234.11329 
L 104.388449 241.140172 
L 105.661604 246.591408 
L 106.934759 245.718449 
L 108.207914 252.273415 
L 109.48107 251.912996 
L 110.754225 256.074241 
L 112.02738 267.436528 
L 113.300535 271.868736 
L 114.57369 278.019635 
L 115.846845 279.488539 
L 117.12 277.609085 
L 118.393155 281.013191 
L 119.66631 283.139406 
L 120.939465 285.023613 
L 122.21262 285.75007 
L 124.75893 286.094932 
L 126.032086 285.99856 
L 127.305241 283.492479 
L 128.578396 286.7315 
L 129.851551 287.250521 
L 131.124706 287.003759 
L 132.397861 287.52278 
L 133.671016 286.959247 
L 134.944171 287.48864 
L 136.217326 286.811449 
L 137.490481 287.52278 
L 138.763636 287.791582 
L 140.036791 289.033171 
L 141.309947 289.354696 
L 142.583102 289.22116 
L 143.856257 289.726784 
L 145.129412 289.622634 
L 146.402567 289.863778 
L 147.675722 289.77 
L 148.948877 289.023664 
L 150.222032 289.499901 
L 151.495187 290.502939 
L 152.768342 290.67537 
L 154.041497 290.692224 
L 156.587807 290.973558 
L 159.134118 291.012021 
L 162.953583 290.690927 
L 164.226738 291.112281 
L 169.319358 291.567775 
L 170.592513 291.59068 
L 171.865668 291.494308 
L 173.138824 291.826205 
L 174.411979 291.805894 
L 175.685134 292.06346 
L 182.050909 292.181007 
L 183.324064 292.292071 
L 188.416684 292.28775 
L 189.68984 292.37591 
L 192.23615 292.014194 
L 194.78246 292.355598 
L 198.601925 292.405297 
L 199.87508 292.251016 
L 201.148235 292.411347 
L 202.42139 292.34998 
L 204.967701 292.377638 
L 207.514011 292.228544 
L 208.787166 291.717734 
L 210.060321 292.081611 
L 211.333476 292.229841 
L 215.152941 292.359056 
L 216.426096 292.168042 
L 217.699251 291.547896 
L 218.972406 292.034505 
L 220.245561 291.886707 
L 221.518717 291.402259 
L 222.791872 292.042284 
L 224.065027 292.227248 
L 226.611337 292.305468 
L 227.884492 292.18965 
L 229.157647 291.713412 
L 232.977112 291.954988 
L 234.250267 291.664578 
L 235.523422 290.594124 
L 236.796578 291.289898 
L 239.342888 291.253597 
L 240.616043 290.904845 
L 241.889198 291.011156 
L 243.162353 290.698706 
L 244.435508 289.231531 
L 245.708663 289.442856 
L 246.981818 286.871519 
L 248.254973 288.601446 
L 249.528128 288.06557 
L 250.801283 286.664083 
L 252.074439 287.671442 
L 253.347594 287.333927 
L 254.620749 284.459647 
L 255.893904 281.985977 
L 257.167059 282.173102 
L 258.440214 281.160556 
L 259.713369 276.26205 
L 260.986524 276.727916 
L 262.259679 277.720582 
L 263.532834 280.838599 
L 264.805989 275.045959 
L 266.079144 279.421122 
L 267.352299 279.198561 
L 268.625455 280.35804 
L 269.89861 279.153184 
L 271.171765 277.573649 
L 272.44492 279.607814 
L 273.718075 277.203722 
L 274.99123 277.481167 
L 276.264385 279.854144 
L 277.53754 282.98599 
L 278.810695 279.654055 
L 280.08385 280.921141 
L 281.357005 281.492886 
L 282.63016 281.486835 
L 283.903316 284.826981 
L 285.176471 284.07762 
L 286.449626 284.236222 
L 287.722781 284.509778 
L 288.995936 285.361128 
L 290.269091 277.168717 
L 291.542246 283.444509 
L 292.815401 283.075447 
L 295.361711 283.485564 
L 296.634866 283.036552 
L 297.908021 279.847662 
L 299.181176 279.208068 
L 300.454332 282.007585 
L 301.727487 282.771208 
L 303.000642 284.048665 
L 304.273797 283.382279 
L 305.546952 283.885742 
L 306.820107 284.725856 
L 308.093262 251.64938 
L 309.366417 284.458783 
L 310.639572 283.470871 
L 311.912727 281.153642 
L 313.185882 279.494589 
L 314.459037 283.845551 
L 315.732193 284.013661 
L 317.005348 282.374919 
L 318.278503 282.247433 
L 320.824813 284.091881 
L 322.097968 281.286746 
L 323.371123 281.460042 
L 324.644278 280.62857 
L 325.917433 280.596159 
L 327.190588 281.201179 
L 328.463743 278.27893 
L 329.736898 281.477328 
L 331.010053 282.0145 
L 332.283209 280.871011 
L 333.556364 279.886124 
L 334.829519 279.965641 
L 337.375829 280.516209 
L 338.648984 280.21586 
L 339.922139 281.030045 
L 341.195294 279.985088 
L 342.468449 281.112587 
L 343.741604 278.440557 
L 345.014759 281.211983 
L 346.287914 280.141961 
L 347.56107 279.227948 
L 348.834225 277.593528 
L 350.10738 277.393007 
L 351.380535 277.360595 
L 353.926845 274.043785 
L 355.2 265.404523 
L 356.473155 271.525171 
L 357.74631 272.40029 
L 359.019465 268.194533 
L 360.29262 264.595092 
L 361.565775 266.681117 
L 362.83893 267.001346 
L 364.112086 265.010396 
L 365.385241 263.328438 
L 366.658396 257.649024 
L 367.931551 251.412125 
L 369.204706 258.441168 
L 370.477861 252.44455 
L 371.751016 254.441982 
L 373.024171 243.766394 
L 374.297326 251.807982 
L 375.570481 258.300285 
L 376.843636 259.94983 
L 378.116791 260.488731 
L 379.389947 230.188867 
L 380.663102 267.102038 
L 381.936257 264.968044 
L 383.209412 259.002973 
L 384.482567 256.549182 
L 385.755722 260.840507 
L 387.028877 251.918182 
L 388.302032 251.604435 
L 389.575187 261.288222 
L 390.848342 257.336574 
L 392.121497 238.796581 
L 393.394652 267.777068 
L 394.667807 265.781797 
L 395.940963 277.26941 
L 397.214118 284.64245 
L 398.487273 259.219052 
L 398.487273 259.219052 
" clip-path="url(#p8809a4b435)" style="fill: none; stroke: #8c564b; stroke-width: 1.5; stroke-linecap: square"/>
   </g>
   <g id="patch_3">
    <path d="M 57.6 307.584 
L 57.6 41.472 
" style="fill: none; stroke: #000000; stroke-width: 0.8; stroke-linejoin: miter; stroke-linecap: square"/>
   </g>
   <g id="patch_4">
    <path d="M 414.72 307.584 
L 414.72 41.472 
" style="fill: none; stroke: #000000; stroke-width: 0.8; stroke-linejoin: miter; stroke-linecap: square"/>
   </g>
   <g id="patch_5">
    <path d="M 57.6 307.584 
L 414.72 307.584 
" style="fill: none; stroke: #000000; stroke-width: 0.8; stroke-linejoin: miter; stroke-linecap: square"/>
   </g>
   <g id="patch_6">
    <path d="M 57.6 41.472 
L 414.72 41.472 
" style="fill: none; stroke: #000000; stroke-width: 0.8; stroke-linejoin: miter; stroke-linecap: square"/>
   </g>
   <g id="legend_1">
    <g id="patch_7">
     <path d="M 317.304375 137.54075 
L 407.72 137.54075 
Q 409.72 137.54075 409.72 135.54075 
L 409.72 48.472 
Q 409.72 46.472 407.72 46.472 
L 317.304375 46.472 
Q 315.304375 46.472 315.304375 48.472 
L 315.304375 135.54075 
Q 315.304375 137.54075 317.304375 137.54075 
z
" style="fill: #ffffff; opacity: 0.8; stroke: #cccccc; stroke-linejoin: miter"/>
    </g>
    <g id="line2d_21">
     <path d="M 319.304375 54.570438 
L 329.304375 54.570438 
L 339.304375 54.570438 
" style="fill: none; stroke: #1f77b4; stroke-width: 1.5; stroke-linecap: square"/>
    </g>
    <g id="text_15">
     <!-- Nota de10 -->
     <g transform="translate(347.304375 58.070438)scale(0.1 -0.1)">
      <defs>
       <path id="DejaVuSans-4e" d="M 628 4666 
L 1478 4666 
L 3547 763 
L 3547 4666 
L 4159 4666 
L 4159 0 
L 3309 0 
L 1241 3903 
L 1241 0 
L 628 0 
L 628 4666 
z
" transform="scale(0.015625)"/>
       <path id="DejaVuSans-6f" d="M 1959 3097 
Q 1497 3097 1228 2736 
Q 959 2375 959 1747 
Q 959 1119 1226 758 
Q 1494 397 1959 397 
Q 2419 397 2687 759 
Q 2956 1122 2956 1747 
Q 2956 2369 2687 2733 
Q 2419 3097 1959 3097 
z
M 1959 3584 
Q 2709 3584 3137 3096 
Q 3566 2609 3566 1747 
Q 3566 888 3137 398 
Q 2709 -91 1959 -91 
Q 1206 -91 779 398 
Q 353 888 353 1747 
Q 353 2609 779 3096 
Q 1206 3584 1959 3584 
z
" transform="scale(0.015625)"/>
       <path id="DejaVuSans-74" d="M 1172 4494 
L 1172 3500 
L 2356 3500 
L 2356 3053 
L 1172 3053 
L 1172 1153 
Q 1172 725 1289 603 
Q 1406 481 1766 481 
L 2356 481 
L 2356 0 
L 1766 0 
Q 1100 0 847 248 
Q 594 497 594 1153 
L 594 3053 
L 172 3053 
L 172 3500 
L 594 3500 
L 594 4494 
L 1172 4494 
z
" transform="scale(0.015625)"/>
       <path id="DejaVuSans-61" d="M 2194 1759 
Q 1497 1759 1228 1600 
Q 959 1441 959 1056 
Q 959 750 1161 570 
Q 1363 391 1709 391 
Q 2188 391 2477 730 
Q 2766 1069 2766 1631 
L 2766 1759 
L 2194 1759 
z
M 3341 1997 
L 3341 0 
L 2766 0 
L 2766 531 
Q 2569 213 2275 61 
Q 1981 -91 1556 -91 
Q 1019 -91 701 211 
Q 384 513 384 1019 
Q 384 1609 779 1909 
Q 1175 2209 1959 2209 
L 2766 2209 
L 2766 2266 
Q 2766 2663 2505 2880 
Q 2244 3097 1772 3097 
Q 1472 3097 1187 3025 
Q 903 2953 641 2809 
L 641 3341 
Q 956 3463 1253 3523 
Q 1550 3584 1831 3584 
Q 2591 3584 2966 3190 
Q 3341 2797 3341 1997 
z
" transform="scale(0.015625)"/>
       <path id="DejaVuSans-20" transform="scale(0.015625)"/>
       <path id="DejaVuSans-64" d="M 2906 2969 
L 2906 4863 
L 3481 4863 
L 3481 0 
L 2906 0 
L 2906 525 
Q 2725 213 2448 61 
Q 2172 -91 1784 -91 
Q 1150 -91 751 415 
Q 353 922 353 1747 
Q 353 2572 751 3078 
Q 1150 3584 1784 3584 
Q 2172 3584 2448 3432 
Q 2725 3281 2906 2969 
z
M 947 1747 
Q 947 1113 1208 752 
Q 1469 391 1925 391 
Q 2381 391 2643 752 
Q 2906 1113 2906 1747 
Q 2906 2381 2643 2742 
Q 2381 3103 1925 3103 
Q 1469 3103 1208 2742 
Q 947 2381 947 1747 
z
" transform="scale(0.015625)"/>
       <path id="DejaVuSans-65" d="M 3597 1894 
L 3597 1613 
L 953 1613 
Q 991 1019 1311 708 
Q 1631 397 2203 397 
Q 2534 397 2845 478 
Q 3156 559 3463 722 
L 3463 178 
Q 3153 47 2828 -22 
Q 2503 -91 2169 -91 
Q 1331 -91 842 396 
Q 353 884 353 1716 
Q 353 2575 817 3079 
Q 1281 3584 2069 3584 
Q 2775 3584 3186 3129 
Q 3597 2675 3597 1894 
z
M 3022 2063 
Q 3016 2534 2758 2815 
Q 2500 3097 2075 3097 
Q 1594 3097 1305 2825 
Q 1016 2553 972 2059 
L 3022 2063 
z
" transform="scale(0.015625)"/>
      </defs>
      <use xlink:href="#DejaVuSans-4e"/>
      <use xlink:href="#DejaVuSans-6f" x="74.804688"/>
      <use xlink:href="#DejaVuSans-74" x="135.986328"/>
      <use xlink:href="#DejaVuSans-61" x="175.195312"/>
      <use xlink:href="#DejaVuSans-20" x="236.474609"/>
      <use xlink:href="#DejaVuSans-64" x="268.261719"/>
      <use xlink:href="#DejaVuSans-65" x="331.738281"/>
      <use xlink:href="#DejaVuSans-31" x="393.261719"/>
      <use xlink:href="#DejaVuSans-30" x="456.884766"/>
     </g>
    </g>
    <g id="line2d_22">
     <path d="M 319.304375 69.248563 
L 329.304375 69.248563 
L 339.304375 69.248563 
" style="fill: none; stroke: #ff7f0e; stroke-width: 1.5; stroke-linecap: square"/>
    </g>
    <g id="text_16">
     <!-- Nota de100 -->
     <g transform="translate(347.304375 72.748563)scale(0.1 -0.1)">
      <use xlink:href="#DejaVuSans-4e"/>
      <use xlink:href="#DejaVuSans-6f" x="74.804688"/>
      <use xlink:href="#DejaVuSans-74" x="135.986328"/>
      <use xlink:href="#DejaVuSans-61" x="175.195312"/>
      <use xlink:href="#DejaVuSans-20" x="236.474609"/>
      <use xlink:href="#DejaVuSans-64" x="268.261719"/>
      <use xlink:href="#DejaVuSans-65" x="331.738281"/>
      <use xlink:href="#DejaVuSans-31" x="393.261719"/>
      <use xlink:href="#DejaVuSans-30" x="456.884766"/>
      <use xlink:href="#DejaVuSans-30" x="520.507812"/>
     </g>
    </g>
    <g id="line2d_23">
     <path d="M 319.304375 83.926688 
L 329.304375 83.926688 
L 339.304375 83.926688 
" style="fill: none; stroke: #2ca02c; stroke-width: 1.5; stroke-linecap: square"/>
    </g>
    <g id="text_17">
     <!-- Nota de50 -->
     <g transform="translate(347.304375 87.426688)scale(0.1 -0.1)">
      <use xlink:href="#DejaVuSans-4e"/>
      <use xlink:href="#DejaVuSans-6f" x="74.804688"/>
      <use xlink:href="#DejaVuSans-74" x="135.986328"/>
      <use xlink:href="#DejaVuSans-61" x="175.195312"/>
      <use xlink:href="#DejaVuSans-20" x="236.474609"/>
      <use xlink:href="#DejaVuSans-64" x="268.261719"/>
      <use xlink:href="#DejaVuSans-65" x="331.738281"/>
      <use xlink:href="#DejaVuSans-35" x="393.261719"/>
      <use xlink:href="#DejaVuSans-30" x="456.884766"/>
     </g>
    </g>
    <g id="line2d_24">
     <path d="M 319.304375 98.604813 
L 329.304375 98.604813 
L 339.304375 98.604813 
" style="fill: none; stroke: #d62728; stroke-width: 1.5; stroke-linecap: square"/>
    </g>
    <g id="text_18">
     <!-- Nota de2 -->
     <g transform="translate(347.304375 102.104813)scale(0.1 -0.1)">
      <use xlink:href="#DejaVuSans-4e"/>
      <use xlink:href="#DejaVuSans-6f" x="74.804688"/>
      <use xlink:href="#DejaVuSans-74" x="135.986328"/>
      <use xlink:href="#DejaVuSans-61" x="175.195312"/>
      <use xlink:href="#DejaVuSans-20" x="236.474609"/>
      <use xlink:href="#DejaVuSans-64" x="268.261719"/>
      <use xlink:href="#DejaVuSans-65" x="331.738281"/>
      <use xlink:href="#DejaVuSans-32" x="393.261719"/>
     </g>
    </g>
    <g id="line2d_25">
     <path d="M 319.304375 113.282938 
L 329.304375 113.282938 
L 339.304375 113.282938 
" style="fill: none; stroke: #9467bd; stroke-width: 1.5; stroke-linecap: square"/>
    </g>
    <g id="text_19">
     <!-- Nota de20 -->
     <g transform="translate(347.304375 116.782938)scale(0.1 -0.1)">
      <use xlink:href="#DejaVuSans-4e"/>
      <use xlink:href="#DejaVuSans-6f" x="74.804688"/>
      <use xlink:href="#DejaVuSans-74" x="135.986328"/>
      <use xlink:href="#DejaVuSans-61" x="175.195312"/>
      <use xlink:href="#DejaVuSans-20" x="236.474609"/>
      <use xlink:href="#DejaVuSans-64" x="268.261719"/>
      <use xlink:href="#DejaVuSans-65" x="331.738281"/>
      <use xlink:href="#DejaVuSans-32" x="393.261719"/>
      <use xlink:href="#DejaVuSans-30" x="456.884766"/>
     </g>
    </g>
    <g id="line2d_26">
     <path d="M 319.304375 127.961063 
L 329.304375 127.961063 
L 339.304375 127.961063 
" style="fill: none; stroke: #8c564b; stroke-width: 1.5; stroke-linecap: square"/>
    </g>
    <g id="text_20">
     <!-- Nota de5 -->
     <g transform="translate(347.304375 131.461063)scale(0.1 -0.1)">
      <use xlink:href="#DejaVuSans-4e"/>
      <use xlink:href="#DejaVuSans-6f" x="74.804688"/>
      <use xlink:href="#DejaVuSans-74" x="135.986328"/>
      <use xlink:href="#DejaVuSans-61" x="175.195312"/>
      <use xlink:href="#DejaVuSans-20" x="236.474609"/>
      <use xlink:href="#DejaVuSans-64" x="268.261719"/>
      <use xlink:href="#DejaVuSans-65" x="331.738281"/>
      <use xlink:href="#DejaVuSans-35" x="393.261719"/>
     </g>
    </g>
   </g>
  </g>
 </g>
 <defs>
  <clipPath id="p8809a4b435">
   <rect x="57.6" y="41.472" width="357.12" height="266.112"/>
  </clipPath>
 </defs>
</svg>
